<?xml version="1.0" encoding="utf-8"?>
<!-- Generator: Adobe Illustrator 15.0.0, SVG Export Plug-In . SVG Version: 6.00 Build 0)  -->
<!DOCTYPE svg PUBLIC "-//W3C//DTD SVG 1.1//EN" "http://www.w3.org/Graphics/SVG/1.1/DTD/svg11.dtd">
<svg version="1.1" id="Layer_1" xmlns="http://www.w3.org/2000/svg" xmlns:xlink="http://www.w3.org/1999/xlink" x="0px" y="0px"
	 width="64px" height="64px" viewBox="0 0 64 64" enable-background="new 0 0 64 64" xml:space="preserve">
<g>
	<path fill="#231F20" d="M59.477,49.398l-9.028-9.033c-0.703-0.702-1.684-1.088-2.759-1.088c-1.132,0-2.224,0.441-2.996,1.213
		l-4.879,4.881l-1.318-0.731c-2.902-1.608-6.874-3.813-11.07-8.015c-4.213-4.208-6.419-8.191-8.033-11.103l-0.722-1.281l4.889-4.887
		c1.617-1.622,1.672-4.203,0.122-5.756l-9.03-9.028C13.949,3.868,12.97,3.48,11.897,3.48c-1.134,0-2.225,0.443-2.997,1.216
		L6.683,6.926l-0.208,0.34c-0.824,1.059-1.5,2.249-2.006,3.545C4,12.047,3.707,13.221,3.573,14.398
		C2.409,24.075,6.871,32.957,18.975,45.06c14.348,14.345,26.336,15.46,29.67,15.46c0.569,0,0.915-0.03,1.013-0.04
		c1.23-0.15,2.41-0.446,3.599-0.907c1.283-0.5,2.469-1.171,3.523-1.996l0.505-0.397l2.075-2.036
		C60.975,53.527,61.026,50.95,59.477,49.398z M58.238,54.027l-1.599,1.58c-0.756,0.725-2.055,1.747-3.955,2.491
		c-1.073,0.413-2.124,0.678-3.208,0.806c-0.061,0.007-0.305,0.024-0.702,0.024c-3.211,0-14.77-1.081-28.678-14.986
		C6.403,30.25,4.214,22.304,5.146,14.586c0.121-1.054,0.381-2.103,0.798-3.203c0.752-1.922,1.775-3.22,2.498-3.969l1.573-1.596
		c0.487-0.485,1.173-0.765,1.884-0.765c0.643,0,1.226,0.226,1.635,0.638l9.03,9.026c0.933,0.935,0.879,2.514-0.122,3.519
		l-5.639,5.634l-0.114,0.116L17,24.516c0.316,0.531,0.648,1.129,1.007,1.78c1.661,2.991,3.934,7.088,8.298,11.451
		c4.371,4.37,8.451,6.631,11.435,8.283c0.678,0.376,1.267,0.703,1.793,1.017l0.529,0.315l5.751-5.751
		c0.482-0.482,1.166-0.76,1.876-0.76c0.648,0,1.231,0.227,1.642,0.639l9.024,9.021C59.287,51.45,59.233,53.027,58.238,54.027z"/>
	<path fill="#231F20" d="M43.424,27.15h-5.84v-0.039l1.039-0.96c2.74-2.64,4.481-4.579,4.481-6.979c0-1.86-1.181-3.78-3.98-3.78
		c-1.501,0-2.781,0.561-3.68,1.321l0.56,1.239c0.6-0.5,1.58-1.099,2.759-1.099c1.941,0,2.579,1.22,2.579,2.539
		c-0.02,1.961-1.519,3.641-4.839,6.8l-1.38,1.34v1.08h8.301V27.15z"/>
	<path fill="#231F20" d="M50.828,28.611h1.659v-3.54h1.82v-1.379h-1.82v-8.08h-1.899l-5.8,8.3v1.16h6.04V28.611z M46.567,23.692
		v-0.041l3.181-4.42c0.36-0.599,0.681-1.159,1.08-1.92h0.06c-0.039,0.681-0.06,1.36-0.06,2.041v4.34H46.567z"/>
</g>
</svg>
