<?xml version="1.0" encoding="utf-8"?>
<!-- Generator: Adobe Illustrator 15.0.0, SVG Export Plug-In . SVG Version: 6.00 Build 0)  -->
<!DOCTYPE svg PUBLIC "-//W3C//DTD SVG 1.1//EN" "http://www.w3.org/Graphics/SVG/1.1/DTD/svg11.dtd">
<svg version="1.1" id="Layer_1" xmlns="http://www.w3.org/2000/svg" xmlns:xlink="http://www.w3.org/1999/xlink" x="0px" y="0px"
	 width="64px" height="64px" viewBox="0 0 64 64" enable-background="new 0 0 64 64" xml:space="preserve">
<g>
	<g>
		<path fill="#231F20" d="M12.013,46.082h39.656V17.899H12.013V46.082z M12.795,18.682h38.09v26.616h-38.09V18.682z"/>
	</g>
	<g>
		<path fill="#231F20" d="M58.407,39.353V24.646c0.367-0.988,2.253-6.515-0.154-10.065c-2.229-3.287-7.292-3.773-15.048-1.373
			c-1.135-0.67-5.075-2.668-11.86-2.668c-6.514,0-9.606,1.863-10.617,2.647c-7.721-2.376-12.76-1.883-14.983,1.395
			c-2.406,3.55-0.52,9.076-0.152,10.064v14.706c-0.368,0.988-2.253,6.515,0.154,10.066c2.222,3.276,7.261,3.769,14.98,1.395
			c1.011,0.784,4.103,2.646,10.617,2.646c6.785,0,10.726-1.996,11.86-2.668c3.239,1.004,6.035,1.511,8.313,1.511
			c3.174,0,5.439-0.969,6.737-2.883C60.661,45.867,58.775,40.341,58.407,39.353z M56.957,48.543
			c-1.819,2.675-6.531,2.897-13.627,0.648l-0.368-0.117l-0.317,0.22c-0.036,0.027-3.805,2.601-11.3,2.601
			c-7.312,0-9.851-2.479-9.871-2.498l-0.337-0.353l-0.467,0.147c-7.093,2.249-11.807,2.029-13.625-0.648
			c-2.131-3.138,0.035-8.698,0.058-8.756l0.055-0.138V24.351l-0.055-0.14c-0.022-0.055-2.195-5.603-0.061-8.75
			c1.815-2.679,6.53-2.902,13.628-0.651l0.462,0.139l0.337-0.339c0.025-0.025,2.564-2.502,9.876-2.502
			c7.448,0,11.264,2.575,11.3,2.599l0.317,0.222l0.368-0.118c7.095-2.249,11.808-2.029,13.625,0.648
			c2.131,3.138-0.035,8.699-0.058,8.755l-0.055,0.139v15.298l0.055,0.141C56.92,39.845,59.086,45.405,56.957,48.543z"/>
	</g>
	<g>
		<path fill="#231F20" d="M39.611,30.947h-6.717V24.23c0-0.582-0.472-1.052-1.053-1.052c-0.584,0-1.054,0.471-1.054,1.052v6.717
			h-6.715c-0.584,0-1.054,0.472-1.054,1.052c0,0.583,0.47,1.054,1.054,1.054h6.715v6.716c0,0.584,0.47,1.054,1.054,1.054
			c0.582,0,1.053-0.47,1.053-1.054v-6.716h6.717c0.581,0,1.053-0.472,1.053-1.054C40.664,31.419,40.192,30.947,39.611,30.947z"/>
	</g>
</g>
</svg>
