<?xml version="1.0" encoding="utf-8"?>
<!-- Generator: Adobe Illustrator 15.0.0, SVG Export Plug-In . SVG Version: 6.00 Build 0)  -->
<!DOCTYPE svg PUBLIC "-//W3C//DTD SVG 1.1//EN" "http://www.w3.org/Graphics/SVG/1.1/DTD/svg11.dtd">
<svg version="1.1" id="Layer_1" xmlns="http://www.w3.org/2000/svg" xmlns:xlink="http://www.w3.org/1999/xlink" x="0px" y="0px"
	 width="64px" height="64px" viewBox="0 0 64 64" enable-background="new 0 0 64 64" xml:space="preserve">
<g>
	<g>
		<path fill="#231F20" d="M13.442,56.137L13.442,56.137c-5.138,0-8.822-0.7-8.978-0.731l0.205-2.137
			c9.039,0,15.523-2.361,19.27-7.013c4.24-5.263,3.781-12.11,3.463-14.477H11.706L35.621,7.863l23.914,23.916H44.453
			C42.553,52.94,24.281,56.137,13.442,56.137z M16.916,29.62h12.27l0.188,0.846c0.087,0.4,2.089,9.875-3.739,17.129
			c-2.354,2.927-5.62,5.041-9.763,6.329c11.978-0.526,25.358-5.229,26.506-23.293l0.064-1.011h11.883L35.621,10.914L16.916,29.62z"
			/>
	</g>
</g>
</svg>
