<?xml version="1.0" encoding="utf-8"?>
<!-- Generator: Adobe Illustrator 15.0.0, SVG Export Plug-In . SVG Version: 6.00 Build 0)  -->
<!DOCTYPE svg PUBLIC "-//W3C//DTD SVG 1.1//EN" "http://www.w3.org/Graphics/SVG/1.1/DTD/svg11.dtd">
<svg version="1.1" id="Layer_1" xmlns="http://www.w3.org/2000/svg" xmlns:xlink="http://www.w3.org/1999/xlink" x="0px" y="0px"
	 width="64px" height="64px" viewBox="0 0 64 64" enable-background="new 0 0 64 64" xml:space="preserve">
<g>
	<polygon fill="#231F20" points="31.407,5.168 31.407,26.109 32.594,26.109 32.594,5.168 41.72,14.295 42.56,13.455 32,2.897 
		21.44,13.455 22.278,14.295 	"/>
	<polygon fill="#231F20" points="26.461,32.242 26.461,31.055 5.548,31.055 14.674,21.928 13.835,21.088 3.275,31.648 
		13.835,42.208 14.674,41.369 5.546,32.242 	"/>
	<polygon fill="#231F20" points="32.594,58.129 32.594,37.188 31.407,37.188 31.407,58.129 22.28,49 21.44,49.84 32,60.399 
		42.56,49.84 41.723,49 	"/>
	<polygon fill="#231F20" points="50.166,21.088 49.326,21.926 58.453,31.055 37.539,31.055 37.539,32.242 58.453,32.242 
		49.326,41.369 50.166,42.208 60.726,31.648 	"/>
</g>
</svg>
