<?xml version="1.0" encoding="utf-8"?>
<!-- Generator: Adobe Illustrator 15.0.0, SVG Export Plug-In . SVG Version: 6.00 Build 0)  -->
<!DOCTYPE svg PUBLIC "-//W3C//DTD SVG 1.1//EN" "http://www.w3.org/Graphics/SVG/1.1/DTD/svg11.dtd">
<svg version="1.1" id="Layer_1" xmlns="http://www.w3.org/2000/svg" xmlns:xlink="http://www.w3.org/1999/xlink" x="0px" y="0px"
	 width="64px" height="64px" viewBox="0 0 64 64" enable-background="new 0 0 64 64" xml:space="preserve">
<g>
	<path fill="#231F20" d="M56.228,33.909c-0.092,6.338-2.611,12.296-7.096,16.78c-9.449,9.449-24.824,9.449-34.273,0
		c-9.449-9.45-9.449-24.827,0-34.276c8.963-8.96,23.25-9.424,32.762-1.389l-8.575,2.206l0.437,2.109l12.371-2.933l-0.062-0.06
		l0.05-0.014l-2.409-12.26l-2.083,0.546l1.756,8.851c-10.355-8.837-25.979-8.367-35.77,1.42c-10.288,10.29-10.288,27.032,0,37.321
		c10.291,10.29,27.03,10.29,37.321,0c4.881-4.881,7.623-11.37,7.724-18.271L56.228,33.909z"/>
</g>
</svg>
