<?xml version="1.0" encoding="utf-8"?>
<!-- Generator: Adobe Illustrator 15.0.0, SVG Export Plug-In . SVG Version: 6.00 Build 0)  -->
<!DOCTYPE svg PUBLIC "-//W3C//DTD SVG 1.1//EN" "http://www.w3.org/Graphics/SVG/1.1/DTD/svg11.dtd">
<svg version="1.1" id="Layer_1" xmlns="http://www.w3.org/2000/svg" xmlns:xlink="http://www.w3.org/1999/xlink" x="0px" y="0px"
	 width="64px" height="64px" viewBox="0 0 64 64" enable-background="new 0 0 64 64" xml:space="preserve">
<g>
	<g>
		<path fill="#231F20" d="M43.092,59.44h-22.71c-0.923,0-1.456-0.349-1.741-0.642c-0.534-0.551-0.542-1.215-0.539-1.343V29.703
			h-2.935c-0.479,0-1.939,0-2.386-1.082c-0.466-1.129,0.663-2.375,1.019-2.73c0.5-0.675,13.973-18.546,15.933-20.51
			c0.68-0.679,1.362-0.821,1.815-0.821c1.193,0,2.012,0.926,2.102,1.032l16.451,19.876c0.435,0.406,1.557,1.625,1.131,2.69
			c-0.25,0.633-0.906,0.954-1.95,0.954h-3.643v28.066c0.042,0.264,0.075,0.868-0.345,1.414C44.861,59.156,44.119,59.44,43.092,59.44
			z M14.252,28.033c0.053,0,0.295,0.099,0.916,0.099h4.507v29.347c0.01,0.258,0.249,0.391,0.707,0.391h22.71
			c0.563,0,0.862-0.121,0.954-0.231c0.066-0.081,0.043-0.21,0.043-0.211l-0.019-0.177v-29.71h5.213c0.198,0,0.335-0.015,0.425-0.032
			c-0.118-0.253-0.435-0.664-0.754-0.969L32.447,6.6c-0.107-0.12-0.499-0.467-0.898-0.467c-0.23,0-0.46,0.118-0.704,0.359
			c-1.883,1.886-15.722,20.245-15.862,20.43c-0.405,0.416-0.727,0.914-0.739,1.111C14.247,28.033,14.249,28.033,14.252,28.033z"/>
	</g>
</g>
</svg>
