<?xml version="1.0" encoding="utf-8"?>
<!-- Generator: Adobe Illustrator 15.0.0, SVG Export Plug-In . SVG Version: 6.00 Build 0)  -->
<!DOCTYPE svg PUBLIC "-//W3C//DTD SVG 1.1//EN" "http://www.w3.org/Graphics/SVG/1.1/DTD/svg11.dtd">
<svg version="1.1" id="Layer_1" xmlns="http://www.w3.org/2000/svg" xmlns:xlink="http://www.w3.org/1999/xlink" x="0px" y="0px"
	 width="64px" height="64px" viewBox="0 0 64 64" enable-background="new 0 0 64 64" xml:space="preserve">
<polygon fill="#231F20" points="58.536,39.479 58.536,57.374 33.162,32 36.079,29.083 36.079,29.083 58.511,6.652 58.511,24.545 
	60.153,24.545 60.155,3.845 39.453,3.846 39.453,5.488 57.347,5.49 31.998,30.836 29.109,27.947 6.625,5.463 24.519,5.463 
	24.519,3.818 3.818,3.818 3.818,24.519 5.463,24.521 5.463,6.625 30.838,32 27.92,34.917 27.92,34.917 5.49,57.348 5.49,39.455 
	3.845,39.455 3.845,60.157 24.545,60.153 24.547,58.513 6.652,58.513 32,33.164 34.891,36.054 57.374,58.536 39.481,58.536 
	39.481,60.182 60.182,60.182 60.182,39.481 "/>
</svg>
