<?xml version="1.0" encoding="utf-8"?>
<!-- Generator: Adobe Illustrator 15.0.0, SVG Export Plug-In . SVG Version: 6.00 Build 0)  -->
<!DOCTYPE svg PUBLIC "-//W3C//DTD SVG 1.1//EN" "http://www.w3.org/Graphics/SVG/1.1/DTD/svg11.dtd">
<svg version="1.1" id="Layer_1" xmlns="http://www.w3.org/2000/svg" xmlns:xlink="http://www.w3.org/1999/xlink" x="0px" y="0px"
	 width="64px" height="64px" viewBox="0 0 64 64" enable-background="new 0 0 64 64" xml:space="preserve">
<g>
	<g>
		<path fill="#231F20" d="M32.239,60.536v-15.63c-8.164-0.737-14.479-3.925-18.775-9.479C4.065,23.276,7.599,4.266,7.754,3.464
			l2.214,0.212c0,9.247,2.386,15.917,7.088,19.824c5.497,4.568,12.695,4.081,15.182,3.735V10.967l24.785,24.784L32.239,60.536z
			 M9.313,15.355c0.287,5.996,1.669,13.212,5.925,18.71c4.068,5.256,10.189,8.179,18.191,8.689l1.048,0.067v12.314l19.386-19.386
			L34.478,16.368v12.713l-0.877,0.194c-0.183,0.038-10.377,2.253-17.972-4.055C12.726,22.81,10.616,19.509,9.313,15.355z"/>
	</g>
</g>
</svg>
