<?xml version="1.0" encoding="utf-8"?>
<!-- Generator: Adobe Illustrator 15.0.0, SVG Export Plug-In . SVG Version: 6.00 Build 0)  -->
<!DOCTYPE svg PUBLIC "-//W3C//DTD SVG 1.1//EN" "http://www.w3.org/Graphics/SVG/1.1/DTD/svg11.dtd">
<svg version="1.1" id="Layer_1" xmlns="http://www.w3.org/2000/svg" xmlns:xlink="http://www.w3.org/1999/xlink" x="0px" y="0px"
	 width="64px" height="64px" viewBox="0 0 64 64" enable-background="new 0 0 64 64" xml:space="preserve">
<g>
	<path d="M4.957,30.78c0-6.588,5.361-11.949,11.951-11.949h40.98L47.01,29.709l0.967,0.967l12.53-12.53L47.977,5.617
		L47.01,6.585l10.878,10.876h-40.98c-7.345,0-13.318,5.976-13.318,13.318v0.138h1.368V30.78z"/>
	<path d="M59.043,33.22c0,6.588-5.362,11.949-11.95,11.949H6.113l10.878-10.878l-0.967-0.967L3.493,45.854
		l12.53,12.529l0.967-0.969L6.113,46.538h40.98c7.344,0,13.318-5.976,13.318-13.318v-0.138h-1.368V33.22z"/>
</g>
</svg>
