<?xml version="1.0" encoding="utf-8"?>
<!-- Generator: Adobe Illustrator 15.0.0, SVG Export Plug-In . SVG Version: 6.00 Build 0)  -->
<!DOCTYPE svg PUBLIC "-//W3C//DTD SVG 1.1//EN" "http://www.w3.org/Graphics/SVG/1.1/DTD/svg11.dtd">
<svg version="1.1" id="Layer_1" xmlns="http://www.w3.org/2000/svg" xmlns:xlink="http://www.w3.org/1999/xlink" x="0px" y="0px"
	 width="64px" height="64px" viewBox="0 0 64 64" enable-background="new 0 0 64 64" xml:space="preserve">
<g>
	<g>
		<path fill="#231F20" d="M28.297,56.69L3.833,32.227h15.428C21.206,10.576,39.897,7.31,50.984,7.31
			c5.255,0,9.025,0.716,9.183,0.745l-0.209,2.188c-9.245,0-15.878,2.413-19.711,7.171c-4.338,5.383-3.868,12.391-3.541,14.812
			h16.055L28.297,56.69z M9.162,34.433l19.135,19.135L47.43,34.433H34.881l-0.192-0.865c-0.089-0.41-2.137-10.099,3.825-17.52
			c2.406-2.997,5.747-5.16,9.987-6.478c-12.254,0.539-25.942,5.352-27.117,23.831l-0.066,1.031H9.162z"/>
	</g>
</g>
</svg>
