<?xml version="1.0" encoding="utf-8"?>
<!-- Generator: Adobe Illustrator 15.0.0, SVG Export Plug-In . SVG Version: 6.00 Build 0)  -->
<!DOCTYPE svg PUBLIC "-//W3C//DTD SVG 1.1//EN" "http://www.w3.org/Graphics/SVG/1.1/DTD/svg11.dtd">
<svg version="1.1" id="Layer_1" xmlns="http://www.w3.org/2000/svg" xmlns:xlink="http://www.w3.org/1999/xlink" x="0px" y="0px"
	 width="64px" height="64px" viewBox="0 0 64 64" enable-background="new 0 0 64 64" xml:space="preserve">
<g>
	<g>
		<g>
			<path fill="#231F20" d="M33.069,53.153c-0.394,0-0.76-0.105-1.07-0.291c-0.307,0.186-0.675,0.291-1.07,0.291
				c-0.137,0-0.276-0.031-0.403-0.094l-2.56-1.269H5.811c-1.09,0-1.979-0.824-1.979-1.838V12.687c0-1.016,0.889-1.84,1.979-1.84
				h22.217c1.222,0,2.994,0.472,4.033,1.97c1.182-1.498,3.195-1.97,4.571-1.97h21.56c1.09,0,1.976,0.824,1.976,1.84v37.266
				c0,1.014-0.886,1.838-1.976,1.838H36.396l-2.963,1.287C33.318,53.13,33.195,53.153,33.069,53.153z M32.005,50.389
				c0.501,0,0.904,0.423,0.904,0.926c0-0.009,0.009-0.009,0.029-0.003l2.907-1.263c0.111-0.049,0.237-0.074,0.36-0.074h21.985
				c0.105,0,0.161-0.048,0.17-0.06L58.35,12.687c0,0.023-0.053-0.022-0.158-0.022h-21.53c-0.166-0.018-1.163,0.013-2.104,0.46
				c-1.111,0.526-1.648,1.422-1.648,2.741c0,0.501-0.407,0.908-0.91,0.908c-0.5,0-0.908-0.406-0.908-0.908
				c0-3.048-2.532-3.201-3.041-3.201H5.811c-0.106,0-0.161,0.046-0.169,0.058L5.65,49.95c0-0.022,0.056,0.023,0.161,0.024H28.18
				c0.14,0,0.279,0.031,0.403,0.094l2.49,1.233c0.007-0.005,0.015-0.011,0.019-0.017c0.004-0.067,0.013-0.134,0.028-0.198
				C31.208,50.681,31.568,50.389,32.005,50.389z"/>
		</g>
	</g>
	<g>
		<g>
			<rect x="31.092" y="13.917" fill="#231F20" width="1.817" height="38.631"/>
		</g>
	</g>
</g>
</svg>
