<?xml version="1.0" encoding="utf-8"?>
<!-- Generator: Adobe Illustrator 15.0.0, SVG Export Plug-In . SVG Version: 6.00 Build 0)  -->
<!DOCTYPE svg PUBLIC "-//W3C//DTD SVG 1.1//EN" "http://www.w3.org/Graphics/SVG/1.1/DTD/svg11.dtd">
<svg version="1.1" id="Layer_1" xmlns="http://www.w3.org/2000/svg" xmlns:xlink="http://www.w3.org/1999/xlink" x="0px" y="0px"
	 width="64px" height="64px" viewBox="0 0 64 64" enable-background="new 0 0 64 64" xml:space="preserve">
<g>
	<g>
		<path fill="#231F20" d="M42.099,15.996c0-4.877-3.965-8.845-8.839-8.845c-4.876,0-8.844,3.968-8.844,8.845
			c0,4.874,3.967,8.841,8.844,8.841C38.134,24.837,42.099,20.869,42.099,15.996z M33.26,23.426c-4.101,0-7.433-3.333-7.433-7.431
			c0-4.099,3.332-7.434,7.433-7.434c4.099,0,7.432,3.335,7.432,7.434C40.691,20.094,37.358,23.426,33.26,23.426z"/>
		<path fill="#231F20" d="M33.783,15.126c-1.164-0.496-1.353-0.763-1.353-1.213c0-0.383,0.173-0.839,1.006-0.839
			c0.767,0,1.256,0.28,1.493,0.417l0.298,0.17l0.535-1.417l-0.219-0.125c-0.472-0.265-0.977-0.42-1.542-0.475v-1.28h-1.407v1.353
			c-1.195,0.292-1.952,1.186-1.952,2.338c-0.003,1.426,1.177,2.083,2.329,2.536c1,0.404,1.207,0.803,1.207,1.277
			c0,0.268-0.089,0.499-0.259,0.669c-0.508,0.511-1.8,0.341-2.615-0.198l-0.313-0.204l-0.514,1.432l0.182,0.128
			c0.459,0.328,1.149,0.553,1.855,0.614v1.313h1.407v-1.404c1.237-0.289,2.056-1.25,2.056-2.454
			C35.979,16.542,35.321,15.752,33.783,15.126z"/>
		<path fill="#231F20" d="M44.756,20.565c-3.755,0-6.813,3.056-6.813,6.808c0,3.755,3.059,6.807,6.813,6.807
			s6.808-3.052,6.808-6.807C51.563,23.621,48.511,20.565,44.756,20.565z M44.756,32.97c-3.089,0-5.601-2.511-5.601-5.597
			s2.512-5.597,5.601-5.597c3.086,0,5.595,2.511,5.595,5.597S47.842,32.97,44.756,32.97z"/>
		<path fill="#231F20" d="M45.179,26.649c-0.849-0.362-0.985-0.55-0.985-0.863c0-0.38,0.234-0.572,0.693-0.572
			c0.565,0,0.918,0.201,1.106,0.31l0.298,0.167l0.453-1.207l-0.216-0.125c-0.347-0.197-0.721-0.319-1.137-0.365V23.01h-1.217v1.052
			c-0.896,0.24-1.483,0.952-1.483,1.833c0,1.128,0.921,1.645,1.818,2c0.729,0.292,0.876,0.565,0.872,0.909
			c0,0.182-0.058,0.34-0.17,0.456c-0.361,0.358-1.308,0.237-1.909-0.158l-0.311-0.204l-0.443,1.222l0.179,0.127
			c0.347,0.247,0.861,0.42,1.39,0.478v1.009h1.207l0.006-1.085c0.946-0.243,1.566-0.991,1.566-1.927
			C46.896,27.5,45.975,26.971,45.179,26.649z"/>
	</g>
	<path d="M4.036,52.276h8.817V34.791H4.036V52.276z M5.793,36.549h5.302v13.97H5.793V36.549z"/>
	<path d="M59.724,45.594c-0.319-0.675-3.396-6.862-7.011-6.218c-0.998,0.183-1.867,1.095-3.071,2.356
		c-2.049,2.155-4.858,5.11-9.34,5.11c-2.733,0-5.819-1.109-9.203-3.305l7.017-0.003c0,0,0.07,0.006,0.186,0.006
		c1.84,0,3.028-1,3.028-2.551v-2.909l-0.018-0.174c-0.204-1.03-1.128-2.977-3.138-2.977H14.428v16.832l0.614,0.194
		c0.638,0.197,15.64,4.883,21.125,4.883l0,0c0,0,0.158,0.009,0.453,0.009c2.362,0,14.566-0.498,22.976-10.31l0.368-0.432
		L59.724,45.594z M36.62,55.092c-0.234,0-0.365-0.006-0.414-0.006c-4.648,0-17.105-3.725-20.021-4.615V36.688h21.988
		c0.939,0,1.316,1.191,1.398,1.496v2.806c0,0.657-0.69,0.794-1.271,0.794L25.72,41.781l2.08,1.577
		c4.579,3.479,8.786,5.242,12.502,5.242c5.232,0,8.474-3.402,10.614-5.655c0.784-0.827,1.675-1.761,2.112-1.843
		c1.706-0.279,3.749,2.605,4.853,4.729C49.985,54.639,38.809,55.092,36.62,55.092z"/>
</g>
</svg>
