<?xml version="1.0" encoding="utf-8"?>
<!-- Generator: Adobe Illustrator 15.0.0, SVG Export Plug-In . SVG Version: 6.00 Build 0)  -->
<!DOCTYPE svg PUBLIC "-//W3C//DTD SVG 1.1//EN" "http://www.w3.org/Graphics/SVG/1.1/DTD/svg11.dtd">
<svg version="1.1" id="Layer_1" xmlns="http://www.w3.org/2000/svg" xmlns:xlink="http://www.w3.org/1999/xlink" x="0px" y="0px"
	 width="64px" height="64px" viewBox="0 0 64 64" enable-background="new 0 0 64 64" xml:space="preserve">
<g>
	<path fill="#231F20" d="M41.717,16.314l-4.559-4.559H26.943l-3.95,4.559H4.426v35.93h55.148v-35.93H41.717z M57.751,50.421H6.249
		V18.139h17.576l3.953-4.56h8.625l4.56,4.56h16.789V50.421z"/>
	<path fill="#231F20" d="M31.801,44.425c-2.479,0-4.81-0.963-6.559-2.712c-3.615-3.616-3.615-9.5,0-13.118
		c1.75-1.748,4.08-2.711,6.559-2.711c1.841,0,3.621,0.536,5.147,1.554l0.91,0.606l-3.359,0.865l0.167,0.807l4.736-1.123l-0.928-4.72
		l-0.797,0.209l0.649,3.279l-0.974-0.642c-1.65-1.085-3.572-1.659-5.555-1.659c-2.7,0-5.236,1.048-7.14,2.953
		c-3.938,3.938-3.938,10.344,0,14.284c1.907,1.903,4.442,2.953,7.142,2.953s5.236-1.05,7.143-2.953
		c1.868-1.869,2.918-4.353,2.956-6.993l-0.824-0.013c-0.035,2.424-0.999,4.704-2.715,6.422C36.61,43.462,34.28,44.425,31.801,44.425
		z"/>
</g>
</svg>
