<?xml version="1.0" encoding="utf-8"?>
<!-- Generator: Adobe Illustrator 15.0.0, SVG Export Plug-In . SVG Version: 6.00 Build 0)  -->
<!DOCTYPE svg PUBLIC "-//W3C//DTD SVG 1.1//EN" "http://www.w3.org/Graphics/SVG/1.1/DTD/svg11.dtd">
<svg version="1.1" id="Layer_1" xmlns="http://www.w3.org/2000/svg" xmlns:xlink="http://www.w3.org/1999/xlink" x="0px" y="0px"
	 width="64px" height="64px" viewBox="0 0 64 64" enable-background="new 0 0 64 64" xml:space="preserve">
<g>
	<path fill="#231F20" d="M41.717,16.314l-4.559-4.559H26.943l-3.95,4.559H4.426v35.93h55.148v-35.93H41.717z M57.751,50.421H6.249
		V18.139h17.579l3.95-4.56h8.628l4.557,4.56h16.789V50.421z"/>
	<path fill="#231F20" d="M32.455,21.716c-5.71,0-10.357,4.646-10.357,10.357h0.875c0-5.229,4.254-9.481,9.482-9.481
		c4.384,0,8.273,3.11,9.252,7.396l0.286,1.26l-3.688-2.654L37.784,29.3l5.094,3.539l2.597-5.178l-0.783-0.393L42.84,30.96
		l-0.313-1.295C41.413,25.058,37.179,21.716,32.455,21.716z"/>
	<path fill="#231F20" d="M33.224,44.828c-4.485,0-8.291-3.044-9.255-7.402l-0.276-1.25l3.684,2.651l0.518-0.705l-5.028-3.64
		l-2.66,5.278l0.781,0.392l1.851-3.692l0.314,1.297c1.113,4.604,5.35,7.947,10.071,7.947c5.712,0,10.357-4.646,10.357-10.357h-0.875
		C42.706,40.575,38.451,44.828,33.224,44.828z"/>
</g>
</svg>
