<?xml version="1.0" encoding="utf-8"?>
<!-- Generator: Adobe Illustrator 15.0.0, SVG Export Plug-In . SVG Version: 6.00 Build 0)  -->
<!DOCTYPE svg PUBLIC "-//W3C//DTD SVG 1.1//EN" "http://www.w3.org/Graphics/SVG/1.1/DTD/svg11.dtd">
<svg version="1.1" id="Layer_1" xmlns="http://www.w3.org/2000/svg" xmlns:xlink="http://www.w3.org/1999/xlink" x="0px" y="0px"
	 width="64px" height="64px" viewBox="0 0 64 64" enable-background="new 0 0 64 64" xml:space="preserve">
<g>
	<g>
		<path fill="#231F20" d="M31.958,15.957c-5.19,0-9.41,4.221-9.41,9.407c0,5.188,4.22,9.41,9.41,9.41
			c5.185,0,9.408-4.223,9.408-9.41C41.366,20.178,37.144,15.957,31.958,15.957z M31.958,33.493c-4.483,0-8.129-3.647-8.129-8.129
			s3.646-8.127,8.129-8.127c4.481,0,8.125,3.646,8.125,8.127S36.439,33.493,31.958,33.493z"/>
	</g>
	<g>
		<path fill="#231F20" d="M32.033,13.547c-6.541,0-11.863,5.322-11.863,11.863c0,6.539,5.322,11.861,11.863,11.861
			s11.863-5.322,11.863-11.861C43.896,18.87,38.573,13.547,32.033,13.547z M32.033,36.174c-5.934,0-10.764-4.83-10.764-10.764
			s4.83-10.763,10.764-10.763c5.937,0,10.763,4.829,10.763,10.763S37.97,36.174,32.033,36.174z"/>
	</g>
	<g>
		<path fill="#231F20" d="M32.031,21.648c-2.077,0-3.76,1.685-3.76,3.762c0,2.078,1.683,3.761,3.76,3.761
			c2.08,0,3.761-1.684,3.761-3.761C35.792,23.333,34.111,21.648,32.031,21.648z"/>
	</g>
	<g>
		<path fill="#231F20" d="M52.539,44.11v-4.718h-3.966c0.107-0.392,0.162-0.796,0.162-1.21V14.084c0-2.565-2.088-4.653-4.654-4.653
			h-1.553c-0.348-2.988-4.826-5.281-10.497-5.281c-5.668,0-10.147,2.293-10.496,5.281h-1.553c-2.566,0-4.652,2.088-4.652,4.653
			v24.099c0,0.414,0.052,0.818,0.16,1.21h-4.03v4.718h19.908v5.995l-6.723,9.041l0.947,0.705l5.897-7.933v5.066h1.179v-4.901
			l5.777,7.768l0.944-0.705l-6.722-9.041V44.11H52.539z M32.031,5.33c4.807,0,8.898,1.842,9.31,4.101H22.723
			C23.134,7.172,27.226,5.33,32.031,5.33z M12.64,40.572h4.655l-0.423-0.851c-0.241-0.487-0.364-1.004-0.364-1.539V14.084
			c0-1.915,1.56-3.473,3.474-3.473h24.099c1.917,0,3.475,1.559,3.475,3.473v24.099c0,0.535-0.122,1.052-0.364,1.539l-0.421,0.851
			h4.591v2.358H12.64V40.572z"/>
	</g>
</g>
</svg>
