<?xml version="1.0" encoding="utf-8"?>
<!-- Generator: Adobe Illustrator 15.0.0, SVG Export Plug-In . SVG Version: 6.00 Build 0)  -->
<!DOCTYPE svg PUBLIC "-//W3C//DTD SVG 1.1//EN" "http://www.w3.org/Graphics/SVG/1.1/DTD/svg11.dtd">
<svg version="1.1" id="Layer_1" xmlns="http://www.w3.org/2000/svg" xmlns:xlink="http://www.w3.org/1999/xlink" x="0px" y="0px"
	 width="64px" height="64px" viewBox="0 0 64 64" enable-background="new 0 0 64 64" xml:space="preserve">
<g>
	<g>
		<path fill="#231F20" d="M37.219,8.855c-1.705,0-3.395,0.185-5.022,0.548l0.027,0.123c-1.747-0.42-3.564-0.671-5.438-0.671
			c-12.763,0-23.146,10.383-23.146,23.146c0,12.76,10.383,23.143,23.146,23.143c1.786,0,3.518-0.224,5.188-0.605
			c1.708,0.397,3.471,0.605,5.246,0.605c12.759,0,23.143-10.383,23.143-23.143C60.361,19.239,49.978,8.855,37.219,8.855z
			 M5.868,32.002c0-11.533,9.384-20.917,20.917-20.917c11.533,0,20.913,9.384,20.913,20.917c0,11.533-9.38,20.913-20.913,20.913
			C15.252,52.915,5.868,43.535,5.868,32.002z M37.219,52.915c-0.178,0-0.352-0.023-0.524-0.03
			c7.811-3.723,13.233-11.668,13.233-20.883c0-9.219-5.427-17.168-13.237-20.886c0.177-0.004,0.351-0.031,0.528-0.031
			c11.532,0,20.913,9.384,20.913,20.917C58.132,43.535,48.751,52.915,37.219,52.915z"/>
	</g>
	<g>
		<path fill="#231F20" d="M27.892,30.378c-3.066-1.304-4.143-2.218-4.143-4.015c0-1.442,0.795-3.066,3.506-3.066
			c2.256,0,3.703,0.814,4.443,1.234l0.879-2.326c-1.057-0.598-2.499-1.165-4.582-1.23L28,17.549h-2.222v3.525
			c-3.209,0.532-5.284,2.75-5.284,5.674c-0.004,3.066,2.222,4.721,5.813,6.133c2.607,1.057,3.757,2.256,3.757,4.192
			c0,2.014-1.466,3.456-3.969,3.456c-1.971,0-3.811-0.702-5.041-1.513l-0.845,2.357c1.234,0.879,3.313,1.516,5.357,1.554v3.521
			h2.218l0.004-3.664c3.629-0.563,5.565-3.174,5.565-5.99C33.354,33.66,31.521,31.863,27.892,30.378z"/>
	</g>
</g>
</svg>
