<?xml version="1.0" encoding="utf-8"?>
<!-- Generator: Adobe Illustrator 15.0.0, SVG Export Plug-In . SVG Version: 6.00 Build 0)  -->
<!DOCTYPE svg PUBLIC "-//W3C//DTD SVG 1.1//EN" "http://www.w3.org/Graphics/SVG/1.1/DTD/svg11.dtd">
<svg version="1.1" id="Layer_1" xmlns="http://www.w3.org/2000/svg" xmlns:xlink="http://www.w3.org/1999/xlink" x="0px" y="0px"
	 width="64px" height="64px" viewBox="0 0 64 64" enable-background="new 0 0 64 64" xml:space="preserve">
<g>
	<polygon points="32.739,49.991 32.739,12.634 31.263,12.634 31.263,49.991 19.905,38.633 18.862,39.68 32,52.817
		45.138,39.68 44.098,38.633 	"/>
	<path d="M32,4.75C16.974,4.75,4.75,16.974,4.75,32c0,15.026,12.223,27.249,27.25,27.249S59.249,47.026,59.249,32
		C59.249,16.974,47.026,4.75,32,4.75z M32,57.962C17.685,57.962,6.038,46.315,6.038,32C6.038,17.685,17.685,6.038,32,6.038
		c14.315,0,25.962,11.647,25.962,25.963C57.962,46.315,46.315,57.962,32,57.962z"/>
</g>
</svg>
