<?xml version="1.0" encoding="utf-8"?>
<!-- Generator: Adobe Illustrator 15.0.0, SVG Export Plug-In . SVG Version: 6.00 Build 0)  -->
<!DOCTYPE svg PUBLIC "-//W3C//DTD SVG 1.1//EN" "http://www.w3.org/Graphics/SVG/1.1/DTD/svg11.dtd">
<svg version="1.1" id="Layer_1" xmlns="http://www.w3.org/2000/svg" xmlns:xlink="http://www.w3.org/1999/xlink" x="0px" y="0px"
	 width="64px" height="64px" viewBox="0 0 64 64" enable-background="new 0 0 64 64" xml:space="preserve">
<g>
	<path d="M47.947,19.299c-2.253-4.022-6.689-6.329-11.445-5.569c-1.867-3.919-5.773-6.408-10.166-6.408
		c-6.217,0-11.278,5.059-11.278,11.277c0,0.256,0.013,0.521,0.036,0.796c-5.366,1.222-9.302,6.067-9.302,11.646
		c0,6.592,5.364,11.955,11.958,11.955H27.2v-1.975H17.75c-5.505,0-9.984-4.477-9.984-9.98c0-4.927,3.68-9.169,8.559-9.868
		c0.261-0.037,0.497-0.178,0.653-0.391c0.156-0.212,0.223-0.479,0.182-0.74c-0.084-0.535-0.125-1.007-0.125-1.443
		c0-5.13,4.172-9.303,9.302-9.303c3.849,0,7.25,2.322,8.657,5.915c0.179,0.455,0.663,0.712,1.143,0.602
		c4.336-1.003,8.408,1.091,10.286,4.825c0.146,0.289,0.423,0.488,0.743,0.534c4.885,0.695,8.567,4.938,8.567,9.87
		c0,5.504-4.478,9.98-9.981,9.98H33.168v1.975h12.583c6.591,0,11.957-5.363,11.957-11.955
		C57.708,25.303,53.546,20.343,47.947,19.299z"/>
	<path d="M34.888,47.621l-3.913,3.912V24.2c0-0.557-0.451-1.009-1.007-1.009c-0.559,0-1.01,0.452-1.01,1.009v27.366l-3.946-3.945
		c-0.392-0.395-1.03-0.395-1.425,0c-0.395,0.393-0.395,1.033,0,1.428l5.632,5.633c0.198,0.197,0.457,0.295,0.712,0.295l0.018-0.002
		c0.008,0,0.013,0.002,0.013,0.002c0.267,0,0.525-0.102,0.718-0.295l5.632-5.633c0.397-0.395,0.397-1.035,0-1.428
		C35.918,47.227,35.279,47.227,34.888,47.621z"/>
</g>
</svg>
