<?xml version="1.0" encoding="utf-8"?>
<!-- Generator: Adobe Illustrator 15.0.0, SVG Export Plug-In . SVG Version: 6.00 Build 0)  -->
<!DOCTYPE svg PUBLIC "-//W3C//DTD SVG 1.1//EN" "http://www.w3.org/Graphics/SVG/1.1/DTD/svg11.dtd">
<svg version="1.1" id="Layer_1" xmlns="http://www.w3.org/2000/svg" xmlns:xlink="http://www.w3.org/1999/xlink" x="0px" y="0px"
	 width="64px" height="64px" viewBox="0 0 64 64" enable-background="new 0 0 64 64" xml:space="preserve">
<g>
	<g>
		<path d="M48.374,20.362c-2.24-3.998-6.649-6.291-11.377-5.536c-1.856-3.896-5.739-6.37-10.105-6.37
			c-6.18,0-11.208,5.028-11.208,11.209c0,0.255,0.01,0.518,0.033,0.792c-5.334,1.215-9.247,6.031-9.247,11.577
			c0,6.554,5.332,11.885,11.886,11.885h9.395v-1.963h-9.395c-5.472,0-9.922-4.451-9.922-9.922c0-4.897,3.656-9.115,8.506-9.809
			c0.26-0.037,0.494-0.177,0.65-0.389c0.155-0.211,0.222-0.476,0.18-0.735c-0.083-0.532-0.125-1.001-0.125-1.436
			c0-5.099,4.15-9.247,9.247-9.247c3.829,0,7.206,2.308,8.607,5.879c0.176,0.453,0.657,0.708,1.134,0.598
			c4.31-0.997,8.36,1.085,10.228,4.797c0.142,0.287,0.42,0.485,0.738,0.53c4.853,0.691,8.517,4.909,8.517,9.811
			c0,5.471-4.453,9.922-9.925,9.922H33.683v1.963H46.19c6.555,0,11.886-5.331,11.886-11.885C58.076,26.33,53.939,21.4,48.374,20.362
			z"/>
	</g>
	<g>
		<path d="M36.811,31.543c0.393-0.392,0.393-1.026,0-1.418l-5.601-5.602c-0.196-0.195-0.451-0.292-0.708-0.292l-0.018,0.003
			c-0.005,0-0.01-0.003-0.015-0.003c-0.26,0-0.517,0.101-0.708,0.292l-5.601,5.602c-0.392,0.392-0.392,1.026,0,1.418
			c0.392,0.393,1.026,0.393,1.418,0l3.887-3.887v27.167c0,0.556,0.448,1.005,1.004,1.005c0.553,0,1.003-0.449,1.003-1.005V27.621
			l3.921,3.922C35.784,31.936,36.419,31.936,36.811,31.543z"/>
	</g>
</g>
</svg>
