<?xml version="1.0" encoding="utf-8"?>
<!-- Generator: Adobe Illustrator 15.0.0, SVG Export Plug-In . SVG Version: 6.00 Build 0)  -->
<!DOCTYPE svg PUBLIC "-//W3C//DTD SVG 1.1//EN" "http://www.w3.org/Graphics/SVG/1.1/DTD/svg11.dtd">
<svg version="1.1" id="Layer_1" xmlns="http://www.w3.org/2000/svg" xmlns:xlink="http://www.w3.org/1999/xlink" x="0px" y="0px"
	 width="64px" height="64px" viewBox="0 0 64 64" enable-background="new 0 0 64 64" xml:space="preserve">
<g>
	<path fill="#231F20" d="M55.069,5.157H8.93c-2.276,0-4.127,1.852-4.127,4.129v46.138c0,2.276,1.851,4.129,4.127,4.129h46.139
		c2.277,0,4.128-1.853,4.128-4.129V9.286C59.197,7.009,57.347,5.157,55.069,5.157z M8.93,7.76h46.139
		c0.842,0,1.523,0.685,1.523,1.526v4.883H7.404V9.286C7.404,8.445,8.089,7.76,8.93,7.76z M55.069,56.95H8.93
		c-0.841,0-1.526-0.686-1.526-1.526V16.771h49.189v38.652C56.593,56.265,55.911,56.95,55.069,56.95z"/>
	<rect x="42.898" y="9.044" fill="#231F20" width="3.091" height="3.091"/>
	<rect x="50.057" y="9.044" fill="#231F20" width="3.091" height="3.091"/>
	<polygon fill="#231F20" points="11.812,37.218 24.296,43.651 24.296,41.794 13.774,36.518 13.774,36.463 24.296,31.189 
		24.296,29.332 11.812,35.764 	"/>
	<polygon fill="#231F20" points="25.796,48.631 27.6,48.631 37.089,25.214 35.258,25.214 	"/>
	<polygon fill="#231F20" points="39.048,31.189 49.651,36.463 49.651,36.518 39.048,41.794 39.048,43.651 51.54,37.243 
		51.54,35.737 39.048,29.332 	"/>
</g>
</svg>
