<?xml version="1.0" encoding="utf-8"?>
<!-- Generator: Adobe Illustrator 15.0.0, SVG Export Plug-In . SVG Version: 6.00 Build 0)  -->
<!DOCTYPE svg PUBLIC "-//W3C//DTD SVG 1.1//EN" "http://www.w3.org/Graphics/SVG/1.1/DTD/svg11.dtd">
<svg version="1.1" id="Layer_1" xmlns="http://www.w3.org/2000/svg" xmlns:xlink="http://www.w3.org/1999/xlink" x="0px" y="0px"
	 width="64px" height="64px" viewBox="0 0 64 64" enable-background="new 0 0 64 64" xml:space="preserve">
<g>
	<path d="M5.167,5.167v53.667h53.667V5.167H5.167z M57.004,15.458h-8.278V6.997h8.278V15.458z M25.864,15.458h-8.148
		V6.997h8.148V15.458z M27.693,6.997h8.816v8.461h-8.816V6.997z M25.864,17.288v39.716h-8.148V17.288H25.864z M27.693,17.288h8.816
		v39.716h-8.816V17.288z M38.34,17.288h8.557v39.716H38.34V17.288z M38.34,15.458V6.997h8.557v8.461H38.34z M15.885,6.997v8.461
		H6.997V6.997H15.885z M6.997,17.288h8.889v39.716H6.997V17.288z M48.726,57.004V17.288h8.278v39.716H48.726z"/>
</g>
</svg>
