<?xml version="1.0" encoding="utf-8"?>
<!-- Generator: Adobe Illustrator 15.0.0, SVG Export Plug-In . SVG Version: 6.00 Build 0)  -->
<!DOCTYPE svg PUBLIC "-//W3C//DTD SVG 1.1//EN" "http://www.w3.org/Graphics/SVG/1.1/DTD/svg11.dtd">
<svg version="1.1" id="Layer_1" xmlns="http://www.w3.org/2000/svg" xmlns:xlink="http://www.w3.org/1999/xlink" x="0px" y="0px"
	 width="64px" height="64px" viewBox="0 0 64 64" enable-background="new 0 0 64 64" xml:space="preserve">
<g>
	<g>
		<path fill="#010101" d="M56.566,12.252H7.436c-1.658,0-3.004,1.347-3.004,3.005v33.489c0,1.655,1.346,3.002,3.004,3.002h49.13
			c1.655,0,3.002-1.347,3.002-3.002V15.257C59.568,13.599,58.222,12.252,56.566,12.252z M7.436,13.89h49.13
			c0.751,0,1.363,0.612,1.363,1.367v6.278H6.07v-6.278C6.07,14.502,6.682,13.89,7.436,13.89z M56.566,50.109H7.436
			c-0.754,0-1.366-0.609-1.366-1.363V26.45h51.86v22.296C57.93,49.5,57.317,50.109,56.566,50.109z"/>
	</g>
	<g>
		<rect x="35.938" y="38.188" fill="#010101" width="16.383" height="4.368"/>
	</g>
</g>
</svg>
