<?xml version="1.0" encoding="utf-8"?>
<!-- Generator: Adobe Illustrator 15.0.0, SVG Export Plug-In . SVG Version: 6.00 Build 0)  -->
<!DOCTYPE svg PUBLIC "-//W3C//DTD SVG 1.1//EN" "http://www.w3.org/Graphics/SVG/1.1/DTD/svg11.dtd">
<svg version="1.1" id="Layer_1" xmlns="http://www.w3.org/2000/svg" xmlns:xlink="http://www.w3.org/1999/xlink" x="0px" y="0px"
	 width="64px" height="64px" viewBox="0 0 64 64" enable-background="new 0 0 64 64" xml:space="preserve">
<g>
	<path fill="#020202" d="M3.751,3.75v56.5h56.497V3.75H3.751z M58.322,47.232h-8.715V38.75h8.715V47.232z M21.24,22.6l2.916,2.919
		h-5.834L21.24,22.6z M16.96,24.156v-5.832l2.916,2.916L16.96,24.156z M36.746,35.388l-3.063-3.063l3.063-3.063V35.388z
		 M32.324,30.965l-3.52-3.523h7.038L32.324,30.965z M25.507,24.146l-2.908-2.906l2.908-2.91V24.146z M30.961,32.325l-3.53,3.53
		v-7.059L30.961,32.325z M32.324,33.688l3.136,3.136h-6.272L32.324,33.688z M40.108,38.75h6.31l-3.153,3.153L40.108,38.75z
		 M41.901,43.267l-3.229,3.229v-6.459L41.901,43.267z M47.681,40.21v6.112l-3.053-3.056L47.681,40.21z M58.322,36.824h-8.715v-9.382
		h8.715V36.824z M47.681,36.824h-9.009v-9.382h9.009V36.824z M27.432,25.52v-9.008h9.314v9.008H27.432z M21.24,19.877l-3.37-3.366
		h6.734L21.24,19.877z M15.034,13.671l-3.543-3.542l3.543-3.543V13.671z M13.221,14.585H7.039l3.09-3.093L13.221,14.585z
		 M5.676,16.511h9.358v9.008H5.676V16.511z M5.676,27.442h9.358v9.382H5.676V27.442z M16.96,27.442h8.547v9.382H16.96V27.442z
		 M36.746,38.75v8.482h-9.314V38.75H36.746z M43.265,44.63l2.604,2.603h-5.206L43.265,44.63z M50.517,49.158h6.909l-3.453,3.456
		L50.517,49.158z M52.613,53.975l-3.006,3.006v-6.009L52.613,53.975z M58.322,25.52h-8.715v-9.008h8.715V25.52z M47.681,25.52
		h-9.009v-9.008h9.009V25.52z M38.672,14.585V5.676h9.009v8.909H38.672z M36.746,14.585h-9.314V5.676h9.314V14.585z M25.507,14.585
		H16.96V5.676h8.547V14.585z M10.128,8.769l-3.09-3.093h6.179L10.128,8.769z M8.767,10.129l-3.091,3.093V7.04L8.767,10.129z
		 M5.676,38.75h9.358v8.482H5.676V38.75z M16.96,38.75h8.547v8.482H16.96V38.75z M25.507,49.158v9.165H16.96v-9.165H25.507z
		 M27.432,49.158h9.314v9.165h-9.314V49.158z M38.672,49.219l0.063-0.061h8.945v9.165h-9.009V49.219z M53.973,55.338l2.99,2.985
		h-5.977L53.973,55.338z M55.336,53.975l2.986-2.986v5.973L55.336,53.975z M58.322,14.585h-8.715V5.676h8.715V14.585z M5.676,49.158
		h9.358v9.165H5.676V49.158z"/>
</g>
</svg>
