<?xml version="1.0" encoding="utf-8"?>
<!-- Generator: Adobe Illustrator 15.0.0, SVG Export Plug-In . SVG Version: 6.00 Build 0)  -->
<!DOCTYPE svg PUBLIC "-//W3C//DTD SVG 1.1//EN" "http://www.w3.org/Graphics/SVG/1.1/DTD/svg11.dtd">
<svg version="1.1" id="Layer_1" xmlns="http://www.w3.org/2000/svg" xmlns:xlink="http://www.w3.org/1999/xlink" x="0px" y="0px"
	 width="64px" height="64px" viewBox="0 0 64 64" enable-background="new 0 0 64 64" xml:space="preserve">
<g>
	<path d="M44.321,32.945c-0.546,0-0.99,0.442-0.99,0.988c0,0.547,0.444,0.988,0.99,0.988h11.37v16.859H9.222V34.922h11.862
		c0.549,0,0.991-0.441,0.991-0.988c0-0.546-0.441-0.988-0.991-0.988H7.247V53.76h50.42V32.945H44.321z"/>
	<path d="M31.322,47.729c0.228,0.229,0.531,0.346,0.834,0.346c0.007,0,0.012-0.005,0.02-0.005s0.014,0.005,0.02,0.005
		c0.306,0,0.609-0.12,0.835-0.346l6.603-6.601c0.462-0.463,0.462-1.211,0-1.673c-0.463-0.461-1.21-0.461-1.673,0l-4.581,4.583
		V12.016c0-0.652-0.529-1.182-1.184-1.182c-0.651,0-1.183,0.53-1.183,1.182v32.062l-4.621-4.622c-0.462-0.461-1.21-0.461-1.672,0
		c-0.462,0.462-0.462,1.21,0,1.673L31.322,47.729z"/>
</g>
</svg>
