<?xml version="1.0" encoding="utf-8"?>
<!-- Generator: Adobe Illustrator 15.0.0, SVG Export Plug-In . SVG Version: 6.00 Build 0)  -->
<!DOCTYPE svg PUBLIC "-//W3C//DTD SVG 1.1//EN" "http://www.w3.org/Graphics/SVG/1.1/DTD/svg11.dtd">
<svg version="1.1" id="Layer_1" xmlns="http://www.w3.org/2000/svg" xmlns:xlink="http://www.w3.org/1999/xlink" x="0px" y="0px"
	 width="64px" height="64px" viewBox="0 0 64 64" enable-background="new 0 0 64 64" xml:space="preserve">
<g>
	<g>
		<path fill="#231F20" d="M49.184,3.75v0.883v0.883v2.062H14.829V4.633h-0.004V3.75H5.3v56.501h9.51v-0.882h0.02v-3.198h34.354
			v3.198h0.013v0.882H58.7V3.75H49.184z M49.184,9.343v21.561H14.829V9.343H49.184z M7.064,5.516h5.998v52.969h-1.913v-2.146H8.648
			v2.146H7.064V5.516z M14.829,54.405V32.671h34.354v21.734H14.829z M56.935,58.484h-1.683v-2.146h-2.499v2.146h-1.806V5.516h5.987
			V58.484z"/>
	</g>
	<g>
		<rect x="8.648" y="7.428" fill="#231F20" width="2.501" height="4.855"/>
	</g>
	<g>
		<rect x="8.648" y="16.478" fill="#231F20" width="2.501" height="4.855"/>
	</g>
	<g>
		<rect x="8.648" y="26.933" fill="#231F20" width="2.501" height="4.854"/>
	</g>
	<g>
		<rect x="8.648" y="36.835" fill="#231F20" width="2.501" height="4.856"/>
	</g>
	<g>
		<rect x="8.648" y="45.885" fill="#231F20" width="2.501" height="4.854"/>
	</g>
	<g>
		<rect x="52.753" y="7.428" fill="#231F20" width="2.499" height="4.855"/>
	</g>
	<g>
		<rect x="52.753" y="16.478" fill="#231F20" width="2.499" height="4.855"/>
	</g>
	<g>
		<rect x="52.753" y="26.933" fill="#231F20" width="2.499" height="4.854"/>
	</g>
	<g>
		<rect x="52.753" y="36.835" fill="#231F20" width="2.499" height="4.856"/>
	</g>
	<g>
		<rect x="52.753" y="45.885" fill="#231F20" width="2.499" height="4.854"/>
	</g>
</g>
</svg>
