<?xml version="1.0" encoding="utf-8"?>
<!-- Generator: Adobe Illustrator 15.0.0, SVG Export Plug-In . SVG Version: 6.00 Build 0)  -->
<!DOCTYPE svg PUBLIC "-//W3C//DTD SVG 1.1//EN" "http://www.w3.org/Graphics/SVG/1.1/DTD/svg11.dtd">
<svg version="1.1" id="Layer_1" xmlns="http://www.w3.org/2000/svg" xmlns:xlink="http://www.w3.org/1999/xlink" x="0px" y="0px"
	 width="64px" height="64px" viewBox="0 0 64 64" enable-background="new 0 0 64 64" xml:space="preserve">
<g>
	<g>
		<path fill="#231F20" d="M12.012,46.082H51.67V17.899H12.012V46.082z M12.796,18.681h38.091v26.617H12.796V18.681z"/>
	</g>
	<g>
		<path fill="#231F20" d="M58.409,39.354V24.646c0.367-0.988,2.251-6.516-0.154-10.066c-2.229-3.287-7.293-3.773-15.051-1.373
			c-1.133-0.67-5.074-2.668-11.86-2.668c-6.513,0-9.605,1.863-10.619,2.647c-7.72-2.376-12.759-1.883-14.98,1.395
			c-2.407,3.551-0.521,9.077-0.153,10.065v14.707c-0.368,0.988-2.252,6.514,0.155,10.065c2.223,3.277,7.262,3.769,14.979,1.396
			c1.014,0.783,4.106,2.646,10.619,2.646c6.786,0,10.727-1.997,11.86-2.668c3.242,1.003,6.038,1.51,8.313,1.51
			c3.173,0,5.441-0.969,6.738-2.883C60.663,45.867,58.776,40.342,58.409,39.354z M56.958,48.543
			c-1.818,2.676-6.532,2.897-13.627,0.649l-0.369-0.118l-0.316,0.22c-0.037,0.027-3.805,2.602-11.301,2.602
			c-7.312,0-9.853-2.479-9.872-2.499l-0.338-0.352l-0.466,0.147c-7.094,2.248-11.807,2.028-13.625-0.649
			c-2.13-3.138,0.036-8.698,0.059-8.756l0.055-0.137v-15.3l-0.056-0.14c-0.021-0.055-2.195-5.604-0.062-8.75
			c1.817-2.68,6.531-2.903,13.629-0.652l0.462,0.139l0.336-0.339c0.025-0.025,2.565-2.502,9.877-2.502
			c7.447,0,11.266,2.574,11.301,2.598l0.316,0.222l0.369-0.118c7.094-2.249,11.808-2.029,13.626,0.648
			c2.13,3.139-0.038,8.7-0.059,8.756l-0.057,0.138l0.001,15.3l0.056,0.14C56.919,39.845,59.088,45.405,56.958,48.543z"/>
	</g>
	<g>
		<path fill="#231F20" d="M38.08,25.762c-0.412-0.413-1.077-0.413-1.489-0.001l-4.751,4.75l-4.748-4.749
			c-0.413-0.413-1.078-0.412-1.49-0.001c-0.412,0.412-0.412,1.079,0.001,1.49L30.352,32l-4.75,4.75c-0.412,0.412-0.412,1.078,0,1.49
			c0.412,0.411,1.078,0.411,1.49,0l4.75-4.75l4.75,4.747c0.411,0.414,1.077,0.414,1.488,0.003c0.411-0.412,0.411-1.078-0.001-1.49
			L33.331,32l4.751-4.75C38.493,26.839,38.493,26.174,38.08,25.762z"/>
	</g>
</g>
</svg>
