<?xml version="1.0" encoding="utf-8"?>
<!-- Generator: Adobe Illustrator 15.0.0, SVG Export Plug-In . SVG Version: 6.00 Build 0)  -->
<!DOCTYPE svg PUBLIC "-//W3C//DTD SVG 1.1//EN" "http://www.w3.org/Graphics/SVG/1.1/DTD/svg11.dtd">
<svg version="1.1" id="Layer_1" xmlns="http://www.w3.org/2000/svg" xmlns:xlink="http://www.w3.org/1999/xlink" x="0px" y="0px"
	 width="64px" height="64px" viewBox="0 0 64 64" enable-background="new 0 0 64 64" xml:space="preserve">
<g>
	<g>
		<path fill="#231F20" d="M11.704,46.301h40.271V17.68H11.704V46.301z M12.497,18.475h38.684v27.03H12.497V18.475z"/>
	</g>
	<g>
		<path fill="#231F20" d="M58.817,39.467V24.532c0.374-1.003,2.289-6.617-0.156-10.222c-2.263-3.338-7.404-3.831-15.282-1.394
			c-1.15-0.681-5.152-2.709-12.044-2.709c-6.615,0-9.756,1.892-10.782,2.688c-7.84-2.413-12.957-1.913-15.215,1.417
			c-2.443,3.605-0.529,9.217-0.155,10.221v14.935c-0.373,1.004-2.286,6.616,0.157,10.223c2.256,3.328,7.373,3.827,15.213,1.417
			c1.026,0.796,4.167,2.687,10.782,2.687c6.892,0,10.894-2.027,12.044-2.71c3.292,1.02,6.131,1.534,8.443,1.534
			c3.222,0,5.522-0.983,6.841-2.928C61.106,46.083,59.193,40.471,58.817,39.467z M57.345,48.8
			c-1.846,2.717-6.633,2.942-13.839,0.659l-0.374-0.119l-0.32,0.223c-0.038,0.028-3.865,2.642-11.477,2.642
			c-7.424,0-10.004-2.518-10.024-2.537l-0.342-0.357l-0.474,0.149C13.291,51.742,8.504,51.52,6.657,48.8
			c-2.165-3.187,0.037-8.833,0.059-8.892l0.057-0.14V24.232L6.716,24.09c-0.023-0.056-2.228-5.69-0.061-8.886
			c1.843-2.721,6.63-2.948,13.839-0.662l0.469,0.141l0.342-0.345c0.025-0.025,2.605-2.541,10.029-2.541
			c7.564,0,11.44,2.615,11.477,2.639l0.32,0.226l0.374-0.119c7.206-2.284,11.991-2.061,13.837,0.658
			c2.164,3.188-0.035,8.834-0.059,8.892l-0.056,0.141v15.537l0.056,0.143C57.308,39.967,59.509,45.613,57.345,48.8z"/>
	</g>
	<g>
		<path fill="#231F20" d="M42.28,41.614c-1.874-4.084-2.039-4.248-2.101-4.31L24.879,22.004c-0.342-0.342-0.897-0.342-1.239,0
			l-1.704,1.704c-0.341,0.342-0.341,0.897,0,1.238l15.3,15.3c0.07,0.071,0.234,0.236,4.481,1.957
			c0.167,0.065,0.357,0.025,0.481-0.104C42.322,41.969,42.355,41.776,42.28,41.614z M37.547,39.317L25.088,26.859l1.705-1.704
			L39.25,37.614L37.547,39.317z M24.259,22.624l1.912,1.912l-1.703,1.703l-1.914-1.912L24.259,22.624z M38.287,39.817l1.479-1.48
			c0.282,0.567,0.761,1.574,1.253,2.633C39.925,40.521,38.878,40.08,38.287,39.817z"/>
	</g>
</g>
</svg>
