<?xml version="1.0" encoding="utf-8"?>
<!-- Generator: Adobe Illustrator 15.0.0, SVG Export Plug-In . SVG Version: 6.00 Build 0)  -->
<!DOCTYPE svg PUBLIC "-//W3C//DTD SVG 1.1//EN" "http://www.w3.org/Graphics/SVG/1.1/DTD/svg11.dtd">
<svg version="1.1" id="Layer_1" xmlns="http://www.w3.org/2000/svg" xmlns:xlink="http://www.w3.org/1999/xlink" x="0px" y="0px"
	 width="64px" height="64px" viewBox="0 0 64 64" enable-background="new 0 0 64 64" xml:space="preserve">
<g>
	<path fill="#231F20" d="M25.005,40.493V20.56h-7.777c-1.789,0-3.248,1.455-3.248,3.248v19.93h7.777
		C23.546,43.737,25.005,42.282,25.005,40.493z M15.027,23.807c0-1.217,0.988-2.201,2.201-2.201h6.73v18.887
		c0,1.213-0.988,2.198-2.201,2.198h-6.73V23.807z"/>
	<path fill="#231F20" d="M37.373,40.493V20.56h-7.777c-1.789,0-3.248,1.455-3.248,3.248v19.93h7.776
		C35.917,43.737,37.373,42.282,37.373,40.493z M27.395,23.807c0-1.217,0.988-2.201,2.201-2.201h6.73v18.887
		c0,1.213-0.988,2.198-2.201,2.198h-6.73V23.807z"/>
	<path fill="#231F20" d="M49.957,40.493V20.56h-7.776c-1.788,0-3.247,1.455-3.247,3.248v19.93h7.776
		C48.498,43.737,49.957,42.282,49.957,40.493z M39.979,23.807c0-1.217,0.988-2.201,2.201-2.201h6.73v18.887
		c0,1.213-0.988,2.198-2.201,2.198h-6.73V23.807z"/>
	<path fill="#231F20" d="M8.525,12.297l-0.217,0.022c-2.292,0.453-4.037,2.227-4.454,4.522L3.833,51.721h50.683
		c2.947,0,5.391-2.296,5.63-5.191l0.021-34.25L8.525,12.297z M58.074,45.682l-0.004,0.427c-0.021,1.941-1.618,3.52-3.555,3.52H5.926
		l0.003-32.5c0.29-1.401,1.372-2.477,2.665-2.741l49.48-0.015V45.682z"/>
	<path fill="#231F20" d="M21.758,26.779h-1.387v7.074c0,2.104-0.731,2.665-1.977,2.665c-0.46,0-0.873-0.098-1.162-0.21l-0.207,1.133
		c0.351,0.142,0.97,0.254,1.481,0.254c1.85,0,3.251-0.877,3.251-3.729V26.779z"/>
	<path fill="#231F20" d="M35.454,36.069c-0.558,0.271-1.416,0.449-2.263,0.449c-2.614,0-4.127-1.691-4.127-4.323
		c0-2.82,1.676-4.428,4.192-4.428c0.895,0,1.641,0.188,2.169,0.445l0.333-1.133c-0.365-0.191-1.213-0.478-2.549-0.478
		c-3.331,0-5.611,2.281-5.611,5.644c0,3.52,2.281,5.435,5.308,5.435c1.307,0,2.328-0.257,2.838-0.511L35.454,36.069z"/>
	<path fill="#231F20" d="M47.778,34.458c0-1.589-1.195-2.437-2.216-2.693v-0.029c1.129-0.417,1.813-1.322,1.813-2.361
		c0-0.843-0.329-1.484-0.891-1.897c-0.67-0.543-1.561-0.778-2.947-0.778c-0.974,0-1.93,0.094-2.538,0.221v10.568
		c0.464,0.065,1.199,0.131,2.154,0.131c1.753,0,2.966-0.322,3.715-1.007C47.408,36.088,47.778,35.382,47.778,34.458z M42.387,27.862
		c0.229-0.047,0.591-0.094,1.231-0.094c1.401,0,2.356,0.493,2.356,1.752c0,1.036-0.857,1.799-2.328,1.799h-1.26V27.862z
		 M43.553,36.533c-0.492,0-0.891-0.015-1.166-0.065v-4.095h1.151c1.514,0,2.77,0.604,2.77,2.07
		C46.308,36.008,44.986,36.533,43.553,36.533z"/>
</g>
</svg>
