<?xml version="1.0" encoding="utf-8"?>
<!-- Generator: Adobe Illustrator 15.0.0, SVG Export Plug-In . SVG Version: 6.00 Build 0)  -->
<!DOCTYPE svg PUBLIC "-//W3C//DTD SVG 1.1//EN" "http://www.w3.org/Graphics/SVG/1.1/DTD/svg11.dtd">
<svg version="1.1" id="Layer_1" xmlns="http://www.w3.org/2000/svg" xmlns:xlink="http://www.w3.org/1999/xlink" x="0px" y="0px"
	 width="64px" height="64px" viewBox="0 0 64 64" enable-background="new 0 0 64 64" xml:space="preserve">
<g>
	<g>
		<path fill="#231F20" d="M32,54.296c-8.457,0-14.138-2.911-14.138-5.63h-1.244c0,1.782,1.446,3.383,3.849,4.59v1.766h1.243v-1.209
			c2.707,1.077,6.299,1.726,10.29,1.726c3.994,0,7.583-0.648,10.291-1.726v1.209h1.244v-1.764c2.404-1.209,3.848-2.81,3.848-4.592
			H46.14C46.14,51.385,40.459,54.296,32,54.296z"/>
	</g>
	<g>
		<path fill="#231F20" d="M32,3.736c-8.625,0-15.382,3.019-15.382,6.873v38.057h1.244V26.993c2.331,2.446,7.716,4.12,14.138,4.12
			c6.423,0,11.809-1.674,14.14-4.12v21.673h1.242V10.609C47.382,6.755,40.625,3.736,32,3.736z M32,4.979
			c8.459,0,14.14,2.911,14.14,5.63c0,1.785-2.462,3.648-6.54,4.72c1.002-0.696,1.585-1.553,1.585-2.502
			c0-2.455-3.853-4.307-8.963-4.307c-5.109,0-8.962,1.853-8.962,4.307c0,1.034,0.69,1.958,1.863,2.685
			c-4.514-1.033-7.26-3.012-7.26-4.902C17.862,7.89,23.543,4.979,32,4.979z M32.221,15.89c-4.548,0-7.72-1.614-7.72-3.063
			c0-1.449,3.172-3.064,7.72-3.064c4.549,0,7.718,1.615,7.718,3.064C39.939,14.276,36.771,15.89,32.221,15.89z M46.14,24.242
			c0,2.718-5.681,5.628-14.14,5.628c-8.457,0-14.138-2.91-14.138-5.628v-2.715c2.331,2.446,7.716,4.12,14.138,4.12
			c6.423,0,11.809-1.674,14.14-4.12V24.242z M46.14,18.775c0,2.719-5.681,5.629-14.14,5.629c-8.457,0-14.138-2.91-14.138-5.629
			v-5.414C20.193,15.807,25.578,17.48,32,17.48c6.423,0,11.809-1.674,14.14-4.119V18.775z"/>
	</g>
	<g>
		<path fill="#231F20" d="M32,59.021c-6.064,0-10.29-2.108-10.29-4h-1.243c0,2.941,5.068,5.242,11.533,5.242
			c6.468,0,11.535-2.301,11.535-5.242H42.29C42.29,56.913,38.064,59.021,32,59.021z"/>
	</g>
</g>
</svg>
