<?xml version="1.0" encoding="utf-8"?>
<!-- Generator: Adobe Illustrator 15.0.0, SVG Export Plug-In . SVG Version: 6.00 Build 0)  -->
<!DOCTYPE svg PUBLIC "-//W3C//DTD SVG 1.1//EN" "http://www.w3.org/Graphics/SVG/1.1/DTD/svg11.dtd">
<svg version="1.1" id="Layer_1" xmlns="http://www.w3.org/2000/svg" xmlns:xlink="http://www.w3.org/1999/xlink" x="0px" y="0px"
	 width="64px" height="64px" viewBox="0 0 64 64" enable-background="new 0 0 64 64" xml:space="preserve">
<g>
	<g>
		<path fill="#231F20" d="M32.001,3.176c-12.812,0-22.845,4.481-22.845,10.206v30.219h1.846v-5.887
			c3.463,3.629,11.46,6.118,20.999,6.118S49.536,41.343,53,37.714v5.887h1.843V13.381C54.843,7.657,44.811,3.176,32.001,3.176z
			 M32.001,5.02C44.563,5.02,53,9.343,53,13.381c0,2.651-3.657,5.417-9.716,7.011c1.491-1.034,2.353-2.309,2.353-3.717
			c0-3.646-5.721-6.396-13.307-6.396c-7.587,0-13.31,2.75-13.31,6.396c0,1.535,1.027,2.908,2.766,3.987
			c-6.704-1.537-10.783-4.475-10.783-7.281C11.003,9.343,19.439,5.02,32.001,5.02z M32.33,21.223
			c-6.759,0-11.463-2.398-11.463-4.548c0-2.152,4.705-4.55,11.463-4.55c6.755,0,11.464,2.398,11.464,4.55
			C43.794,18.825,39.085,21.223,32.33,21.223z M53,33.625c0,4.037-8.437,8.361-20.999,8.361c-12.563,0-20.999-4.324-20.999-8.361
			v-4.031c3.463,3.633,11.46,6.116,20.999,6.116S49.536,33.228,53,29.594V33.625z M53,25.51c0,4.037-8.437,8.358-20.999,8.358
			c-12.563,0-20.999-4.321-20.999-8.358v-8.042c3.463,3.632,11.46,6.118,20.999,6.118S49.536,21.101,53,17.468V25.51z"/>
	</g>
	<g>
		<path fill="#231F20" d="M32.001,51.96c-12.563,0-20.999-4.322-20.999-8.359H9.157c0,2.645,2.147,5.024,5.716,6.818v2.62h1.844
			v-1.797c4.021,1.603,9.354,2.563,15.285,2.563c5.927,0,11.261-0.961,15.281-2.563v1.797h1.847v-2.62
			c3.572-1.794,5.714-4.174,5.714-6.818H53C53,47.638,44.563,51.96,32.001,51.96z"/>
	</g>
	<g>
		<path fill="#231F20" d="M32.001,58.979c-9.008,0-15.285-3.131-15.285-5.936h-1.844c0,4.363,7.523,7.78,17.129,7.78
			c9.601,0,17.127-3.417,17.127-7.78h-1.847C47.282,55.848,41.009,58.979,32.001,58.979z"/>
	</g>
</g>
</svg>
