<?xml version="1.0" encoding="utf-8"?>
<!-- Generator: Adobe Illustrator 15.0.0, SVG Export Plug-In . SVG Version: 6.00 Build 0)  -->
<!DOCTYPE svg PUBLIC "-//W3C//DTD SVG 1.1//EN" "http://www.w3.org/Graphics/SVG/1.1/DTD/svg11.dtd">
<svg version="1.1" id="Layer_1" xmlns="http://www.w3.org/2000/svg" xmlns:xlink="http://www.w3.org/1999/xlink" x="0px" y="0px"
	 width="64px" height="64px" viewBox="0 0 64 64" enable-background="new 0 0 64 64" xml:space="preserve">
<g>
	<polygon points="31.489,26.588 40.566,34.276 41.458,33.522 32.38,25.835 41.229,18.34 41.458,18.146 40.566,17.393 31.489,25.081 
		22.412,17.393 21.521,18.146 30.601,25.835 21.75,33.33 21.521,33.522 22.412,34.276 	"/>
	<path d="M52.938,9.093l-0.024-0.227H10.398L6.926,40.888l-0.028,0.281h0.089v14.417h49.336V41.169h0.093L52.938,9.093z
		 M11.85,10.484h39.612l3.152,29.067H41.198v0.809c0,5.261-4.28,9.542-9.542,9.542c-5.263,0-9.543-4.281-9.543-9.542v-0.809H8.698
		L11.85,10.484z M54.705,53.97h-46.1V41.169h11.919c0.417,5.813,5.281,10.35,11.132,10.35c5.85,0,10.713-4.536,11.128-10.35h11.92
		V53.97z"/>
</g>
</svg>
