<?xml version="1.0" encoding="utf-8"?>
<!-- Generator: Adobe Illustrator 15.0.0, SVG Export Plug-In . SVG Version: 6.00 Build 0)  -->
<!DOCTYPE svg PUBLIC "-//W3C//DTD SVG 1.1//EN" "http://www.w3.org/Graphics/SVG/1.1/DTD/svg11.dtd">
<svg version="1.1" id="Layer_1" xmlns="http://www.w3.org/2000/svg" xmlns:xlink="http://www.w3.org/1999/xlink" x="0px" y="0px"
	 width="64px" height="64px" viewBox="0 0 64 64" enable-background="new 0 0 64 64" xml:space="preserve">
<g>
	<path fill="#221F1F" d="M31.161,38.622h1.497c4.459,0,8.087-3.627,8.087-8.086V12.434c0-4.459-3.628-8.086-8.087-8.086h-1.497
		c-4.459,0-8.087,3.627-8.087,8.086v18.103C23.074,34.995,26.702,38.622,31.161,38.622z M31.161,5.547h1.497
		c3.798,0,6.887,3.09,6.887,6.887v2.07H24.274v-2.07C24.274,8.637,27.363,5.547,31.161,5.547z M32.658,37.423h-1.497
		c-3.798,0-6.887-3.09-6.887-6.887V15.703h15.271v14.833C39.545,34.333,36.456,37.423,32.658,37.423z"/>
	<path fill="#221F1F" d="M45.238,31.602v0.1c0,6.605-5.374,11.98-11.98,11.98h-2.516c-6.607,0-11.982-5.375-11.982-11.98v-0.1
		h-1.199v0.1c0,7.268,5.912,13.18,13.182,13.18h0.657v13.572h-7.19v1.199H39.79v-1.199H32.6V44.881h0.658
		c7.268,0,13.182-5.912,13.182-13.18v-0.1H45.238z"/>
</g>
</svg>
