<?xml version="1.0" encoding="utf-8"?>
<!-- Generator: Adobe Illustrator 15.0.0, SVG Export Plug-In . SVG Version: 6.00 Build 0)  -->
<!DOCTYPE svg PUBLIC "-//W3C//DTD SVG 1.1//EN" "http://www.w3.org/Graphics/SVG/1.1/DTD/svg11.dtd">
<svg version="1.1" id="Layer_1" xmlns="http://www.w3.org/2000/svg" xmlns:xlink="http://www.w3.org/1999/xlink" x="0px" y="0px"
	 width="64px" height="64px" viewBox="0 0 64 64" enable-background="new 0 0 64 64" xml:space="preserve">
<g>
	<g>
		<path fill="#020202" d="M32.854,20.028c-0.015-1.274,0.576-2.269,1.151-3.236c0.758-1.278,1.543-2.6,0.997-4.417
			c-0.555-1.667-1.607-2.485-2.539-3.212c-1.254-0.973-2.159-1.676-1.687-4.343l0.041-0.229l-1.35-0.238L29.427,4.58
			c-0.615,3.484,0.878,4.643,2.195,5.666c0.85,0.663,1.653,1.288,2.072,2.542c0.366,1.224-0.18,2.143-0.869,3.306
			c-0.641,1.081-1.366,2.3-1.349,3.933c-6.837,0.007-13.823,0.291-13.823,24.59c0,10.951,8.799,15.032,14.347,15.032
			c5.545,0,14.347-4.081,14.347-15.032C46.347,20.347,39.228,20.048,32.854,20.028z M32.685,21.399
			c5.643,0.012,10.927,0.236,12.063,16.153c-3.86,1.805-7.916,2.765-12.063,2.86v-2.966c0.845-0.162,1.481-0.909,1.481-1.782v-8.956
			c0-0.876-0.637-1.621-1.481-1.784V21.399z M31.658,26.254h0.685c0.249,0,0.453,0.205,0.453,0.454v8.956
			c0,0.249-0.204,0.449-0.453,0.449h-0.685c-0.249,0-0.452-0.2-0.452-0.449v-8.956C31.206,26.459,31.409,26.254,31.658,26.254z
			 M31.313,21.399v3.525c-0.845,0.163-1.479,0.91-1.479,1.784v8.956c0,0.873,0.634,1.62,1.479,1.782v2.966
			c-6.311-0.148-10.905-2.252-12.063-2.839C20.381,21.633,25.668,21.411,31.313,21.399z M32,58.274
			c-5.016,0-12.976-3.707-12.976-13.658c0-1.983,0.045-3.853,0.134-5.563c2.003,0.929,6.696,2.74,12.868,2.74
			c4.394,0,8.704-0.934,12.813-2.771c0.089,1.718,0.135,3.6,0.135,5.595C44.974,54.567,37.016,58.274,32,58.274z"/>
	</g>
	<g>
		<polygon fill="#020202" points="36.413,24.174 35.07,25.814 37.753,25.814 		"/>
	</g>
	<g>
		<polygon fill="#020202" points="36.461,38.225 37.801,36.585 35.121,36.585 		"/>
	</g>
</g>
</svg>
