<?xml version="1.0" encoding="utf-8"?>
<!-- Generator: Adobe Illustrator 15.0.0, SVG Export Plug-In . SVG Version: 6.00 Build 0)  -->
<!DOCTYPE svg PUBLIC "-//W3C//DTD SVG 1.1//EN" "http://www.w3.org/Graphics/SVG/1.1/DTD/svg11.dtd">
<svg version="1.1" id="Layer_1" xmlns="http://www.w3.org/2000/svg" xmlns:xlink="http://www.w3.org/1999/xlink" x="0px" y="0px"
	 width="64px" height="64px" viewBox="0 0 64 64" enable-background="new 0 0 64 64" xml:space="preserve">
<g>
	<g>
		<path fill="#231F20" d="M59.48,26.095c-0.123-0.226-2.181-3.774-10.003-6.18c-5.179-5.74-11.085-8.665-17.152-8.684
			c-0.021,0-0.043,0-0.062,0c-10.209,0-17.483,8.144-17.797,8.49l0.174,0.159c-7.918,2.407-10,5.99-10.124,6.215l-0.097,0.18v17.73
			c0,4.832,3.616,8.765,8.058,8.765h39.043c4.443,0,8.059-3.933,8.059-8.765v-17.73L59.48,26.095z M32.263,12.823
			c0.019,0,0.038,0,0.057,0c4.92,0.016,9.817,2.138,14.182,6.307c-3.733-0.843-8.478-1.416-14.502-1.416
			c-6.095,0-10.875,0.585-14.628,1.445C20.071,16.828,25.486,12.823,32.263,12.823z M6.013,44.005V30.078h9.876
			c2.028,0,3.739,2.713,3.739,5.926v3.137c0,3.213-1.711,5.926-3.739,5.926H6.091C6.045,44.72,6.013,44.368,6.013,44.005z
			 M51.521,51.174H12.478c-2.721,0-5.047-1.872-6-4.513h9.412c2.99,0,5.332-3.304,5.332-7.521v-3.137
			c0-4.217-2.342-7.519-5.332-7.519H6.013v-1.77c0.766-1.066,6.17-7.408,25.987-7.408c19.836,0,25.229,6.358,25.984,7.405v1.773
			h-9.842c-2.989,0-5.331,3.301-5.331,7.519v3.137c0,4.217,2.342,7.521,5.331,7.521h9.377C56.566,49.302,54.24,51.174,51.521,51.174
			z M57.906,45.066h-9.764c-2.025,0-3.738-2.713-3.738-5.926v-3.137c0-3.213,1.713-5.926,3.738-5.926h9.842v13.927
			C57.984,44.368,57.952,44.72,57.906,45.066z"/>
	</g>
	<g>
		<path fill="#231F20" d="M39.878,23.914L39.878,23.914l-17.62,0.016c-0.314,0-0.599,0.183-0.728,0.47
			c-0.126,0.288-0.075,0.623,0.137,0.857l6.041,6.734c0.15,0.167,0.368,0.263,0.593,0.263h5.627c0.23,0,0.445-0.097,0.599-0.269
			l5.949-6.748c0.207-0.236,0.256-0.569,0.13-0.856C40.477,24.096,40.192,23.914,39.878,23.914z M33.568,30.661h-4.913l-4.612-5.141
			l14.069-0.011L33.568,30.661z"/>
	</g>
</g>
</svg>
