<?xml version="1.0" encoding="utf-8"?>
<!-- Generator: Adobe Illustrator 15.0.0, SVG Export Plug-In . SVG Version: 6.00 Build 0)  -->
<!DOCTYPE svg PUBLIC "-//W3C//DTD SVG 1.1//EN" "http://www.w3.org/Graphics/SVG/1.1/DTD/svg11.dtd">
<svg version="1.1" id="Layer_1" xmlns="http://www.w3.org/2000/svg" xmlns:xlink="http://www.w3.org/1999/xlink" x="0px" y="0px"
	 width="64px" height="64px" viewBox="0 0 64 64" enable-background="new 0 0 64 64" xml:space="preserve">
<g>
	<g>
		<path fill="#020202" d="M3.833,11.527v36.422h56.334V11.527H3.833z M58.574,46.357H5.426V13.123h53.148V46.357z"/>
	</g>
	<g>
		<polygon fill="#020202" points="21.375,52.473 31.565,52.473 41.983,52.473 41.983,49.731 21.375,49.731 		"/>
	</g>
	<g>
		<path fill="#020202" d="M25.462,38.976c0.871,0,1.824-0.488,2.546-1.31c0.738-0.834,1.073-1.821,0.982-2.652v-9.917l9.728-0.361
			v6.685c-0.979-0.363-2.354,0.076-3.303,1.149c-1.177,1.332-1.335,3.05-0.363,3.907c0.346,0.304,0.789,0.462,1.288,0.462
			c0.87,0,1.824-0.488,2.546-1.307c0.691-0.787,1.024-1.704,0.985-2.502h0.018l-0.002-10.88c0-0.281-0.136-0.548-0.356-0.709
			c-0.205-0.15-0.47-0.21-0.72-0.153l-10.319,0.566l-0.122,0.021c-0.372,0.117-0.618,0.455-0.618,0.844
			c0,1.813,0.002,5.474,0.008,7.293l0.002,0.829c0,0.829,0,1.663,0.002,2.495c-0.974-0.32-2.302,0.122-3.227,1.171
			c-1.177,1.333-1.335,3.051-0.364,3.908C24.519,38.817,24.963,38.976,25.462,38.976z M37.889,34.751
			c-0.878,0.995-1.793,1.112-2.073,0.863c-0.294-0.26-0.208-1.255,0.595-2.164c0.632-0.718,1.32-0.97,1.72-0.97
			c0.156,0,0.275,0.034,0.356,0.106C38.779,32.845,38.691,33.84,37.889,34.751z M28.751,22.94l10.133-0.556v1.346l-10.133,0.376
			C28.751,23.681,28.751,23.276,28.751,22.94z M25.529,35.481c0.634-0.723,1.331-0.977,1.73-0.977c0.156,0,0.278,0.036,0.358,0.106
			c0.294,0.26,0.206,1.263-0.603,2.18c-0.883,1.003-1.806,1.119-2.089,0.87C24.63,37.398,24.719,36.396,25.529,35.481z"/>
	</g>
</g>
</svg>
