<?xml version="1.0" encoding="utf-8"?>
<!-- Generator: Adobe Illustrator 15.0.0, SVG Export Plug-In . SVG Version: 6.00 Build 0)  -->
<!DOCTYPE svg PUBLIC "-//W3C//DTD SVG 1.1//EN" "http://www.w3.org/Graphics/SVG/1.1/DTD/svg11.dtd">
<svg version="1.1" id="Layer_1" xmlns="http://www.w3.org/2000/svg" xmlns:xlink="http://www.w3.org/1999/xlink" x="0px" y="0px"
	 width="64px" height="64px" viewBox="0 0 64 64" enable-background="new 0 0 64 64" xml:space="preserve">
<g>
	<g>
		<path fill="#020202" d="M55.075,20.919c-2.885,0-5.229,2.348-5.229,5.229v19.971h2.212V26.148c0-1.663,1.354-3.013,3.018-3.013
			c1.659,0,3.013,1.351,3.013,3.013l-0.044,0.038l-0.006,25.749c0,3.172-3.493,5.825-7.924,6.04
			c-3.919-0.177-6.992-2.483-6.992-5.254l0.021-48.933H3.697v48.146c0,4.563,4.821,8.277,10.744,8.277h35.068
			c0.145,0,0.29-0.006,0.432-0.016l0.148-0.007l0.167,0.007c0.11,0.006,0.222,0.013,0.335,0.013l0.303-0.041v-0.025
			c5.355-0.53,9.359-4.021,9.359-8.208v-5.815h0.051V26.148C60.304,23.267,57.956,20.919,55.075,20.919z M5.912,6h35.017
			l-0.02,46.721c0,1.997,1.017,3.878,2.818,5.276H14.441c-4.702,0-8.529-2.721-8.529-6.063V6z"/>
	</g>
	<g>
		<rect x="8.105" y="25.375" fill="#020202" width="13.534" height="1.603"/>
	</g>
	<g>
		<rect x="9.408" y="10.718" fill="#020202" width="27.907" height="1.606"/>
	</g>
	<g>
		<rect x="15.132" y="15.435" fill="#020202" width="16.462" height="1.606"/>
	</g>
	<g>
		<rect x="8.105" y="29.379" fill="#020202" width="13.534" height="1.606"/>
	</g>
	<g>
		<rect x="8.105" y="33.333" fill="#020202" width="13.534" height="1.606"/>
	</g>
	<g>
		<rect x="8.105" y="37.347" fill="#020202" width="13.534" height="1.606"/>
	</g>
	<g>
		<rect x="8.105" y="41.783" fill="#020202" width="13.534" height="1.606"/>
	</g>
	<g>
		<rect x="24.485" y="25.615" fill="#020202" width="13.534" height="1.606"/>
	</g>
	<g>
		<rect x="24.485" y="29.619" fill="#020202" width="13.534" height="1.606"/>
	</g>
	<g>
		<rect x="24.485" y="33.573" fill="#020202" width="13.534" height="1.605"/>
	</g>
	<g>
		<rect x="24.485" y="37.587" fill="#020202" width="13.534" height="1.606"/>
	</g>
	<g>
		<rect x="24.485" y="42.023" fill="#020202" width="13.534" height="1.606"/>
	</g>
</g>
</svg>
