<?xml version="1.0" encoding="utf-8"?>
<!-- Generator: Adobe Illustrator 15.0.0, SVG Export Plug-In . SVG Version: 6.00 Build 0)  -->
<!DOCTYPE svg PUBLIC "-//W3C//DTD SVG 1.1//EN" "http://www.w3.org/Graphics/SVG/1.1/DTD/svg11.dtd">
<svg version="1.1" id="Layer_1" xmlns="http://www.w3.org/2000/svg" xmlns:xlink="http://www.w3.org/1999/xlink" x="0px" y="0px"
	 width="64px" height="64px" viewBox="0 0 64 64" enable-background="new 0 0 64 64" xml:space="preserve">
<g>
	<rect x="17.834" y="31.557" fill="#231F20" width="11.456" height="1.284"/>
	<path fill="#231F20" d="M60.514,24.441l-7.212-9.569l0.021-0.018h-0.037l-0.032-0.043l-0.055,0.043H43.178l1.343-3.74L32.274,8.458
		l-1.418-4.353l-16.934,4.77l2.362,8.941L6.271,25.774v0.429l-2.785,8.494l2.785-2.031v27.229h34.121v-0.082l12.905-11.479V31.72
		L60.514,24.441z M58.818,24.325L47.391,35.852l-6.818-9.318l11.778-10.789L58.818,24.325z M50.02,16.137L39.5,25.774h-0.251
		l3.466-9.637H50.02z M37.885,25.774h-16.82l6.151-17.099l15.602,3.385L37.885,25.774z M30.017,5.676l0.804,2.466l-4.434-0.962
		l-6.678,18.566L15.488,9.769L30.017,5.676z M16.698,19.378l1.689,6.396h-9.66L16.698,19.378z M39.106,58.611H7.554V27.058h31.552
		V58.611z M52.014,47.759L40.392,58.094V28.46l6.85,9.364l4.772-4.809V47.759z"/>
</g>
</svg>
