<?xml version="1.0" encoding="utf-8"?>
<!-- Generator: Adobe Illustrator 15.0.0, SVG Export Plug-In . SVG Version: 6.00 Build 0)  -->
<!DOCTYPE svg PUBLIC "-//W3C//DTD SVG 1.1//EN" "http://www.w3.org/Graphics/SVG/1.1/DTD/svg11.dtd">
<svg version="1.1" id="Layer_1" xmlns="http://www.w3.org/2000/svg" xmlns:xlink="http://www.w3.org/1999/xlink" x="0px" y="0px"
	 width="64px" height="64px" viewBox="0 0 64 64" enable-background="new 0 0 64 64" xml:space="preserve">
<g>
	<path fill="#231F20" d="M37.854,44.562c-1.716,1.275-3.738,1.95-5.854,1.95c-2.113,0-4.137-0.675-5.852-1.95l-1.031-0.766
		l-1.857,9.372l0.561,0.273c2.563,1.255,5.314,1.893,8.179,1.893s5.617-0.638,8.181-1.893l0.561-0.273l-1.856-9.372L37.854,44.562z
		 M32,53.709c-2.407,0-4.726-0.492-6.901-1.463l1.126-5.686c1.753,1.035,3.728,1.576,5.775,1.576s4.021-0.541,5.775-1.576
		l1.128,5.686C36.726,53.217,34.407,53.709,32,53.709z"/>
	<path fill="#231F20" d="M43.869,39.526l9.374,1.857l0.273-0.563c1.255-2.565,1.892-5.318,1.892-8.18
		c0-2.864-0.637-5.617-1.893-8.18l-0.272-0.561l-9.374,1.856l0.766,1.032c1.276,1.714,1.951,3.739,1.951,5.852
		c0,2.114-0.675,4.139-1.949,5.852L43.869,39.526z M46.636,26.866l5.684-1.125c0.973,2.177,1.463,4.496,1.463,6.901
		c0,2.404-0.49,4.723-1.463,6.901l-5.684-1.124c1.035-1.754,1.574-3.729,1.574-5.777C48.21,30.594,47.671,28.622,46.636,26.866z"/>
	<path fill="#231F20" d="M20.13,25.757l-9.37-1.856l-0.275,0.561c-1.253,2.564-1.891,5.316-1.891,8.179
		c0,2.865,0.637,5.619,1.891,8.182l0.275,0.562l9.37-1.857l-0.767-1.033c-1.274-1.713-1.947-3.737-1.947-5.853
		c0-2.114,0.672-4.137,1.947-5.851L20.13,25.757z M17.365,38.419l-5.683,1.124c-0.971-2.177-1.464-4.496-1.464-6.902
		c0-2.404,0.493-4.723,1.464-6.9l5.683,1.125c-1.033,1.754-1.575,3.728-1.575,5.775C15.79,34.689,16.332,36.665,17.365,38.419z"/>
	<path fill="#231F20" d="M32.001,8.52c-2.867,0-5.618,0.637-8.181,1.892l-0.561,0.276l1.857,9.372l1.032-0.769
		c1.713-1.275,3.736-1.948,5.852-1.948c2.114,0,4.137,0.673,5.852,1.948l1.032,0.769l1.855-9.372l-0.561-0.276
		C37.617,9.156,34.865,8.52,32.001,8.52z M37.776,17.293c-1.755-1.035-3.728-1.576-5.775-1.576c-2.049,0-4.023,0.541-5.777,1.576
		l-1.126-5.686c2.176-0.97,4.495-1.462,6.903-1.462c2.406,0,4.724,0.492,6.902,1.462L37.776,17.293z"/>
	<path fill="#231F20" d="M57.482,43.057c1.54-3.455,2.399-7.275,2.399-11.295c0-3.807-0.768-7.437-2.157-10.746
		c1.846-2.006,0.27-6.469-3.727-10.463c-1.819-1.822-3.857-3.228-5.736-3.958c-1.816-0.707-3.346-0.717-4.375-0.048
		C40.278,4.838,36.25,3.879,32,3.879c-4.264,0-8.308,0.966-11.924,2.685c-1.032-0.688-2.571-0.684-4.407,0.03
		c-1.877,0.73-3.917,2.136-5.736,3.958c-4.032,4.03-5.605,8.54-3.68,10.52c-1.373,3.293-2.134,6.903-2.134,10.689
		c0,4.018,0.862,7.84,2.399,11.295L6.31,42.849c-1.964,1.966-0.392,6.501,3.657,10.55c1.821,1.821,3.859,3.228,5.736,3.959
		c0.93,0.36,1.782,0.54,2.535,0.54c0.897,0,1.641-0.265,2.195-0.777c3.527,1.617,7.441,2.522,11.566,2.522
		c4.126,0,8.041-0.905,11.568-2.522c0.552,0.513,1.298,0.777,2.196,0.777c0.747,0,1.604-0.18,2.532-0.54
		c1.877-0.731,3.916-2.138,5.737-3.959c4.05-4.049,5.621-8.584,3.655-10.55L57.482,43.057z M47.674,8.108
		c1.673,0.651,3.511,1.927,5.177,3.592c2.809,2.808,4.205,5.853,4.003,7.444c-2.432-4.768-6.189-8.746-10.791-11.445
		C46.536,7.745,47.079,7.877,47.674,8.108z M11.081,11.701c1.667-1.666,3.505-2.941,5.177-3.592
		c0.628-0.245,1.201-0.378,1.693-0.416c-4.639,2.718-8.421,6.735-10.853,11.551C6.82,17.683,8.21,14.57,11.081,11.701z
		 M16.292,55.842c-1.673-0.65-3.51-1.927-5.177-3.593c-3.027-3.026-4.413-6.329-3.922-7.788c2.556,4.975,6.559,9.089,11.457,11.771
		C18.054,56.335,17.235,56.208,16.292,55.842z M32,58.019c-14.478,0-26.258-11.778-26.258-26.257
		C5.742,17.283,17.522,5.504,32,5.504c14.479,0,26.258,11.779,26.258,26.257C58.258,46.24,46.479,58.019,32,58.019z M52.885,52.249
		c-1.665,1.666-3.504,2.942-5.177,3.593c-0.943,0.366-1.762,0.493-2.356,0.391c4.897-2.683,8.9-6.797,11.459-11.771
		C57.299,45.92,55.913,49.223,52.885,52.249z"/>
</g>
</svg>
