<?xml version="1.0" encoding="utf-8"?>
<!-- Generator: Adobe Illustrator 15.0.0, SVG Export Plug-In . SVG Version: 6.00 Build 0)  -->
<!DOCTYPE svg PUBLIC "-//W3C//DTD SVG 1.1//EN" "http://www.w3.org/Graphics/SVG/1.1/DTD/svg11.dtd">
<svg version="1.1" id="Layer_1" xmlns="http://www.w3.org/2000/svg" xmlns:xlink="http://www.w3.org/1999/xlink" x="0px" y="0px"
	 width="64px" height="64px" viewBox="0 0 64 64" enable-background="new 0 0 64 64" xml:space="preserve">
<g>
	<path d="M50.362,15.914H39.836v-4.129c0-4.318-3.512-7.831-7.83-7.831c-4.318,0-7.831,3.513-7.831,7.831v4.129
		h-9.928l-2.539,44.132h40.583L50.362,15.914z M25.938,11.785c0-3.345,2.723-6.068,6.068-6.068c3.346,0,6.067,2.723,6.067,6.068
		v4.129H25.938V11.785z M15.911,17.676h8.264v4.132h1.763v-4.132h12.136v4.132h1.763v-4.132h8.84l1.773,40.611H13.575L15.911,17.676
		z"/>
</g>
</svg>
