<?xml version="1.0" encoding="utf-8"?>
<!-- Generator: Adobe Illustrator 15.0.0, SVG Export Plug-In . SVG Version: 6.00 Build 0)  -->
<!DOCTYPE svg PUBLIC "-//W3C//DTD SVG 1.1//EN" "http://www.w3.org/Graphics/SVG/1.1/DTD/svg11.dtd">
<svg version="1.1" id="Layer_1" xmlns="http://www.w3.org/2000/svg" xmlns:xlink="http://www.w3.org/1999/xlink" x="0px" y="0px"
	 width="64px" height="64px" viewBox="0 0 64 64" enable-background="new 0 0 64 64" xml:space="preserve">
<g>
	<g>
		<path d="M59.168,20.577C58.32,17.412,45.233,4.571,42.808,3.922c-0.595-0.158-0.957,0.119-1.081,0.247
			c-0.212,0.21-0.418,0.589-0.224,1.207c0.677,2.137-0.581,9.343-1.59,13.667l-0.022,0.082l-9.64,9.644l-1.026-1.021l1.051-1.057
			l-1.161-1.158l-2.938,2.949l1.165,1.155l1.054-1.058l1.026,1.021l-2.765,2.764l-1.009-1.008l1.054-1.061l-1.158-1.158
			l-2.934,2.946l1.161,1.158l1.048-1.054l1.009,1.006l-2.672,2.676l-1.012-1.009l1.047-1.055l-1.157-1.157l-2.936,2.946l1.165,1.159
			l1.051-1.061l1.012,1.006l-2.733,2.732l-1.003-0.997l0.993-1.004l-1.161-1.153l-2.934,2.946l1.161,1.159l1.112-1.115l1,0.992
			L6.7,52.322l-0.134-0.009c-0.493-0.038-0.972,0.135-1.315,0.482c-0.647,0.652-0.643,1.708,0.005,2.357l3.203,3.204
			c0.652,0.652,1.713,0.652,2.368-0.003c0.484-0.482,0.618-1.233,0.341-1.863l-0.083-0.181l3.221-3.221l0.167,0.414
			c0.525,1.343,1.313,2.549,2.344,3.582c3.906,3.9,10.338,4.062,14.443,0.4l0.494-0.461l14.659-14.658
			c4.102-4.101,4.102-10.78,0-14.884c-0.981-0.981-2.127-1.743-3.397-2.271l-0.409-0.167l1.651-1.648l0.077-0.021
			c4.095-1.079,10.969-2.289,13.123-1.198c0.102,0.052,0.209,0.08,0.324,0.092c0.463,0.038,0.834-0.08,1.108-0.351
			C59.076,21.73,59.362,21.306,59.168,20.577z M56.428,20.099c-4.405-0.584-12.006,1.427-12.858,1.658
			c-0.149,0.042-0.283,0.119-0.391,0.226l-2.885,2.885c-0.229,0.229-0.313,0.567-0.219,0.878c0.094,0.31,0.349,0.542,0.667,0.608
			c1.679,0.338,3.211,1.161,4.424,2.374c3.415,3.419,3.415,8.979,0,12.395L30.313,55.965c-3.414,3.27-8.911,3.215-12.253-0.126
			c-1.258-1.264-2.097-2.864-2.416-4.624c-0.058-0.323-0.289-0.587-0.6-0.683c-0.316-0.102-0.655-0.017-0.887,0.217l-4.909,4.909
			c-0.077,0.076-0.137,0.164-0.18,0.257l-0.174,0.387l-1.975-1.974l0.372-0.175c0.094-0.047,0.177-0.102,0.248-0.176l33.777-33.784
			c0.114-0.118,0.194-0.262,0.233-0.419c0.205-0.857,1.986-8.496,1.898-12.884l-0.015-0.622l0.49,0.384
			c3.397,2.684,10.473,9.726,12.782,12.987l0.391,0.551L56.428,20.099z"/>
	</g>
	<g>
		<path d="M34.303,32.669L21.85,45.119c-2.002,2.006-2.002,5.263,0,7.266c2.002,2.001,5.262,2.004,7.265,0l12.453-12.451
			c2.002-2.004,2.002-5.263,0-7.265C39.563,30.664,36.305,30.664,34.303,32.669z M40.321,33.912c1.315,1.318,1.315,3.459,0,4.774
			l-12.45,12.454c-1.317,1.315-3.459,1.313-4.774,0c-1.317-1.315-1.317-3.459,0-4.774l12.45-12.454
			C36.862,32.596,39.005,32.596,40.321,33.912z"/>
	</g>
</g>
</svg>
