<?xml version="1.0" encoding="utf-8"?>
<!-- Generator: Adobe Illustrator 15.0.0, SVG Export Plug-In . SVG Version: 6.00 Build 0)  -->
<!DOCTYPE svg PUBLIC "-//W3C//DTD SVG 1.1//EN" "http://www.w3.org/Graphics/SVG/1.1/DTD/svg11.dtd">
<svg version="1.1" id="Layer_1" xmlns="http://www.w3.org/2000/svg" xmlns:xlink="http://www.w3.org/1999/xlink" x="0px" y="0px"
	 width="64px" height="64px" viewBox="0 0 64 64" enable-background="new 0 0 64 64" xml:space="preserve">
<g>
	<g>
		<path d="M33.329,45.193c10.633-0.695,18.966-9.58,18.966-20.226c0-11.19-9.107-20.294-20.295-20.294
			c-11.19,0-20.294,9.104-20.294,20.294c0,10.646,8.33,19.531,18.961,20.226l0.312,0.017v7.12H19.106
			c-0.562,0-1.021,0.46-1.021,1.024c0,0.563,0.459,1.021,1.021,1.021h25.698c0.562,0,1.021-0.459,1.021-1.021
			c0-0.564-0.459-1.024-1.021-1.024H33.021v-7.12L33.329,45.193z M32,43.216c-10.067,0-18.252-8.186-18.252-18.249
			c0-10.063,8.186-18.249,18.252-18.249c10.063,0,18.249,8.186,18.249,18.249C50.249,35.03,42.063,43.216,32,43.216z"/>
	</g>
	<g>
		<path d="M33.165,22.11l-0.157-0.055c-0.356-0.123-0.686-0.181-1.008-0.181c-1.71,0-3.094,1.388-3.094,3.094
			c0,1.707,1.384,3.094,3.094,3.094c1.706,0,3.094-1.388,3.094-3.094c0-0.271-0.048-0.559-0.147-0.88l-0.051-0.168l5.887-7.161
			L33.165,22.11z"/>
	</g>
	<g>
		<path d="M44.805,57.281H19.106c-0.562,0-1.021,0.46-1.021,1.024c0,0.563,0.459,1.021,1.021,1.021h25.698
			c0.562,0,1.021-0.459,1.021-1.021C45.825,57.741,45.366,57.281,44.805,57.281z"/>
	</g>
</g>
</svg>
