<?xml version="1.0" encoding="utf-8"?>
<!-- Generator: Adobe Illustrator 15.0.0, SVG Export Plug-In . SVG Version: 6.00 Build 0)  -->
<!DOCTYPE svg PUBLIC "-//W3C//DTD SVG 1.1//EN" "http://www.w3.org/Graphics/SVG/1.1/DTD/svg11.dtd">
<svg version="1.1" id="Layer_1" xmlns="http://www.w3.org/2000/svg" xmlns:xlink="http://www.w3.org/1999/xlink" x="0px" y="0px"
	 width="64px" height="64px" viewBox="0 0 64 64" enable-background="new 0 0 64 64" xml:space="preserve">
<path d="M52.813,50.616v-0.022l0.017-0.018h-0.017V10.854h-7.336v-7.12H11.171v49.479h7.335v7.119h24.491v0.001l0.001-0.001h0.049
	v-0.049l9.742-9.666H52.813z M13.15,5.713h30.348v37.745h-7.837v7.774H13.15V5.713z M40.689,45.435l-3.049,3.025v-3.025H40.689z
	 M20.486,58.354v-5.142h15.175l9.794-9.716h0.021v-0.022l0.017-0.016h-0.017V12.832h5.356v37.745h-7.836v7.777H20.486z
	 M44.977,55.58v-3.024h3.049L44.977,55.58z"/>
</svg>
