<?xml version="1.0" encoding="utf-8"?>
<!-- Generator: Adobe Illustrator 15.0.0, SVG Export Plug-In . SVG Version: 6.00 Build 0)  -->
<!DOCTYPE svg PUBLIC "-//W3C//DTD SVG 1.1//EN" "http://www.w3.org/Graphics/SVG/1.1/DTD/svg11.dtd">
<svg version="1.1" id="Layer_1" xmlns="http://www.w3.org/2000/svg" xmlns:xlink="http://www.w3.org/1999/xlink" x="0px" y="0px"
	 width="64px" height="64px" viewBox="0 0 64 64" enable-background="new 0 0 64 64" xml:space="preserve">
<g>
	<path d="M50.141,15.703l5.158-5.16c0.448-0.447,0.448-1.172,0-1.619s-1.17-0.447-1.618,0l-5.158,5.16l-5.161-5.16
		c-0.448-0.447-1.171-0.447-1.619,0s-0.448,1.172,0,1.619l5.157,5.16l-5.004,5.006c-7.8-6.953-19.792-6.71-27.271,0.769
		c-7.753,7.752-7.753,20.368,0,28.12c7.753,7.754,20.367,7.754,28.12,0c7.479-7.478,7.721-19.47,0.77-27.269l5.008-5.006l5.158,5.16
		c0.448,0.447,1.17,0.447,1.618,0c0.448-0.448,0.448-1.171,0-1.619L50.141,15.703z M41.138,47.99
		c-6.865,6.864-18.039,6.864-24.905,0c-6.867-6.866-6.867-18.04,0-24.907s18.04-6.867,24.905,0
		C48.006,29.951,48.006,41.124,41.138,47.99z"/>
</g>
</svg>
