<?xml version="1.0" encoding="utf-8"?>
<!-- Generator: Adobe Illustrator 15.0.0, SVG Export Plug-In . SVG Version: 6.00 Build 0)  -->
<!DOCTYPE svg PUBLIC "-//W3C//DTD SVG 1.1//EN" "http://www.w3.org/Graphics/SVG/1.1/DTD/svg11.dtd">
<svg version="1.1" id="Layer_1" xmlns="http://www.w3.org/2000/svg" xmlns:xlink="http://www.w3.org/1999/xlink" x="0px" y="0px"
	 width="64px" height="64px" viewBox="0 0 64 64" enable-background="new 0 0 64 64" xml:space="preserve">
<g>
	<path d="M38.374,32.395V10.772c0-3.517-2.86-6.377-6.374-6.377c-3.517,0-6.375,2.86-6.375,6.377v21.622
		c-4.864,2.417-7.981,7.407-7.981,12.853c0,7.917,6.44,14.357,14.357,14.357c7.916,0,14.356-6.44,14.356-14.357
		C46.356,39.802,43.239,34.812,38.374,32.395z M32,5.938c2.667,0,4.834,2.168,4.834,4.835v2.41h-9.669v-2.41
		C27.166,8.105,29.334,5.938,32,5.938z M32,58.065c-7.068,0-12.817-5.751-12.817-12.818c0-5.01,2.957-9.588,7.53-11.664l0.453-0.204
		V14.724h9.669v3.54h-5.689v1.54h5.689v2.698h-5.689v1.54h5.689v2.952h-5.689v1.542h5.689v4.845l0.45,0.204
		c4.575,2.076,7.529,6.654,7.529,11.664C44.814,52.314,39.066,58.065,32,58.065z"/>
</g>
<g>
	<path fill="none" stroke="#020202" stroke-width="1.5" stroke-miterlimit="10" d="M32,32"/>
</g>
</svg>
