<?xml version="1.0" encoding="utf-8"?>
<!-- Generator: Adobe Illustrator 15.0.0, SVG Export Plug-In . SVG Version: 6.00 Build 0)  -->
<!DOCTYPE svg PUBLIC "-//W3C//DTD SVG 1.1//EN" "http://www.w3.org/Graphics/SVG/1.1/DTD/svg11.dtd">
<svg version="1.1" id="Layer_1" xmlns="http://www.w3.org/2000/svg" xmlns:xlink="http://www.w3.org/1999/xlink" x="0px" y="0px"
	 width="64px" height="64px" viewBox="0 0 64 64" enable-background="new 0 0 64 64" xml:space="preserve">
<g>
	<g>
		<path d="M54.63,10.46H40.044c0.122-0.345,0.201-0.71,0.201-1.095V7.249c0-1.812-1.471-3.282-3.282-3.282H26.708
			c-1.81,0-3.282,1.471-3.282,3.282v2.117c0,0.385,0.08,0.75,0.203,1.095H9.368c-0.604,0-1.093,0.488-1.093,1.093
			c0,0.604,0.488,1.093,1.093,1.093h4.658c-0.135,0.34-0.214,0.707-0.214,1.094v43.282c0,1.659,1.35,3.01,3.01,3.01H47.18
			c1.658,0,3.007-1.351,3.007-3.01V13.741c0-0.387-0.08-0.754-0.213-1.094h4.656c0.604,0,1.096-0.489,1.096-1.093
			C55.726,10.949,55.234,10.46,54.63,10.46z M25.615,9.366V7.249c0-0.604,0.49-1.095,1.093-1.095h10.255
			c0.605,0,1.097,0.49,1.097,1.095v2.117c0,0.604-0.491,1.095-1.097,1.095H26.708C26.104,10.46,25.615,9.969,25.615,9.366z
			 M48.545,13.741v43.282c0,0.755-0.613,1.368-1.365,1.368H16.821c-0.755,0-1.369-0.613-1.369-1.368V13.741
			c0-0.458,0.241-0.846,0.591-1.094h10.665h10.255h10.994C48.304,12.895,48.545,13.283,48.545,13.741z"/>
	</g>
	<g>
		<path d="M22.564,19.325c-0.453,0-0.821,0.369-0.821,0.82v30.473c0,0.454,0.368,0.82,0.821,0.82c0.453,0,0.82-0.366,0.82-0.82
			V20.146C23.384,19.694,23.017,19.325,22.564,19.325z"/>
	</g>
	<g>
		<path d="M31.999,19.325c-0.453,0-0.82,0.369-0.82,0.82v30.473c0,0.454,0.368,0.82,0.82,0.82c0.453,0,0.821-0.366,0.821-0.82
			V20.146C32.82,19.694,32.452,19.325,31.999,19.325z"/>
	</g>
	<g>
		<path d="M41.571,51.438c0.454,0,0.82-0.366,0.82-0.82V20.146c0-0.451-0.366-0.82-0.82-0.82c-0.451,0-0.82,0.369-0.82,0.82v30.473
			C40.751,51.072,41.12,51.438,41.571,51.438z"/>
	</g>
</g>
</svg>
