<?xml version="1.0" encoding="utf-8"?>
<!-- Generator: Adobe Illustrator 15.0.0, SVG Export Plug-In . SVG Version: 6.00 Build 0)  -->
<!DOCTYPE svg PUBLIC "-//W3C//DTD SVG 1.1//EN" "http://www.w3.org/Graphics/SVG/1.1/DTD/svg11.dtd">
<svg version="1.1" id="Layer_1" xmlns="http://www.w3.org/2000/svg" xmlns:xlink="http://www.w3.org/1999/xlink" x="0px" y="0px"
	 width="64px" height="64px" viewBox="0 0 64 64" enable-background="new 0 0 64 64" xml:space="preserve">
<path fill="#231F20" d="M56.14,28.375H35.274V7.506c0-1.809-1.462-3.271-3.274-3.271c-1.811,0-3.274,1.463-3.274,3.271v20.869H7.862
	c-1.813,0-3.274,1.464-3.274,3.272c0,1.807,1.462,3.27,3.274,3.27h20.863v20.869c0,1.809,1.464,3.272,3.274,3.272
	c1.813,0,3.274-1.464,3.274-3.272V34.918H56.14c1.811,0,3.272-1.463,3.272-3.27C59.412,29.839,57.95,28.375,56.14,28.375z"/>
</svg>
