<?xml version="1.0" encoding="utf-8"?>
<!-- Generator: Adobe Illustrator 15.0.0, SVG Export Plug-In . SVG Version: 6.00 Build 0)  -->
<!DOCTYPE svg PUBLIC "-//W3C//DTD SVG 1.1//EN" "http://www.w3.org/Graphics/SVG/1.1/DTD/svg11.dtd">
<svg version="1.1" id="Layer_1" xmlns="http://www.w3.org/2000/svg" xmlns:xlink="http://www.w3.org/1999/xlink" x="0px" y="0px"
	 width="64px" height="64px" viewBox="0 0 64 64" enable-background="new 0 0 64 64" xml:space="preserve">
<g>
	<g>
		<path fill="#231F20" d="M51.232,57.013c-11.231,0-30.167-3.309-32.138-25.242H3.465L28.249,6.987l24.784,24.784H36.765
			c-0.328,2.453-0.805,9.549,3.59,15.006c3.884,4.82,10.603,7.265,19.969,7.265l0.212,2.218
			C60.376,56.287,56.556,57.013,51.232,57.013z M8.863,29.533h12.315l0.067,1.048c1.19,18.721,15.058,23.597,27.472,24.142
			c-4.296-1.335-7.68-3.529-10.118-6.562c-6.04-7.518-3.965-17.336-3.875-17.749l0.194-0.88h12.713L28.249,10.15L8.863,29.533z"/>
	</g>
</g>
</svg>
