<?xml version="1.0" encoding="utf-8"?>
<!-- Generator: Adobe Illustrator 15.0.0, SVG Export Plug-In . SVG Version: 6.00 Build 0)  -->
<!DOCTYPE svg PUBLIC "-//W3C//DTD SVG 1.1//EN" "http://www.w3.org/Graphics/SVG/1.1/DTD/svg11.dtd">
<svg version="1.1" id="Layer_1" xmlns="http://www.w3.org/2000/svg" xmlns:xlink="http://www.w3.org/1999/xlink" x="0px" y="0px"
	 width="64px" height="64px" viewBox="0 0 64 64" enable-background="new 0 0 64 64" xml:space="preserve">
<g>
	<path fill="#231F20" d="M20.133,46.303c0.495,0,0.897-0.4,0.897-0.897V31.506c0-0.497-0.402-0.897-0.897-0.897
		c-0.496,0-0.898,0.401-0.898,0.897v13.899C19.235,45.902,19.638,46.303,20.133,46.303z"/>
	<path fill="#231F20" d="M28.063,46.303c0.497,0,0.898-0.4,0.898-0.897V31.506c0-0.497-0.401-0.897-0.898-0.897
		c-0.494,0-0.897,0.401-0.897,0.897v13.899C27.165,45.902,27.569,46.303,28.063,46.303z"/>
	<path fill="#231F20" d="M35.901,46.303c0.494,0,0.897-0.4,0.897-0.897V31.506c0-0.497-0.403-0.897-0.897-0.897
		c-0.497,0-0.897,0.401-0.897,0.897v13.899C35.004,45.902,35.404,46.303,35.901,46.303z"/>
	<path fill="#231F20" d="M43.645,46.303c0.497,0,0.897-0.4,0.897-0.897V31.506c0-0.497-0.4-0.897-0.897-0.897
		c-0.494,0-0.897,0.401-0.897,0.897v13.899C42.747,45.902,43.15,46.303,43.645,46.303z"/>
	<path fill="#231F20" d="M58.91,19.505h-4.138l2.88-2.879c0.683-0.687,0.683-1.798,0-2.479l-2.225-2.224
		c-0.661-0.662-1.813-0.662-2.479,0l-7.581,7.582H18.832l-7.582-7.582c-0.665-0.662-1.813-0.662-2.481,0l-2.219,2.221
		c-0.683,0.683-0.685,1.795-0.001,2.481l2.881,2.879H5.089v8.516h3.796l5.235,24.552h34.251l6.73-24.552h3.809V19.505z
		 M47.002,50.778h-31.43l-4.842-22.71h42.5L47.002,50.778z M57.114,26.226H6.885V21.3h6.878l-5.944-5.886l2.163-2.221l8.108,8.106
		H46.11l8.051-8.106l2.221,2.162L50.437,21.3h6.678V26.226z"/>
</g>
</svg>
