<?xml version="1.0" encoding="utf-8"?>
<!-- Generator: Adobe Illustrator 15.0.0, SVG Export Plug-In . SVG Version: 6.00 Build 0)  -->
<!DOCTYPE svg PUBLIC "-//W3C//DTD SVG 1.1//EN" "http://www.w3.org/Graphics/SVG/1.1/DTD/svg11.dtd">
<svg version="1.1" id="Layer_1" xmlns="http://www.w3.org/2000/svg" xmlns:xlink="http://www.w3.org/1999/xlink" x="0px" y="0px"
	 width="64px" height="64px" viewBox="0 0 64 64" enable-background="new 0 0 64 64" xml:space="preserve">
<path fill="#231F20" d="M52.065,14.453V3.75H41.359v3.507H30.606v23.538h-4.225v-6.454H11.935v14.448h14.446v-6.454h4.225v23.54
	h10.753v4.375h10.706V49.544H41.359v4.791h-9.214v-22h9.214v4.582h10.706V26.213H41.359v4.582h-9.214V8.797h9.214v5.656H52.065z
	 M50.525,5.291v7.622H42.9V5.291H50.525z M50.525,27.754v7.622H42.9v-7.622H50.525z M50.525,51.085v7.625H42.9v-7.625H50.525z
	 M13.476,37.248V25.884H24.84v11.364H13.476z"/>
</svg>
