<?xml version="1.0" encoding="utf-8"?>
<!-- Generator: Adobe Illustrator 15.0.0, SVG Export Plug-In . SVG Version: 6.00 Build 0)  -->
<!DOCTYPE svg PUBLIC "-//W3C//DTD SVG 1.1//EN" "http://www.w3.org/Graphics/SVG/1.1/DTD/svg11.dtd">
<svg version="1.1" id="Layer_1" xmlns="http://www.w3.org/2000/svg" xmlns:xlink="http://www.w3.org/1999/xlink" x="0px" y="0px"
	 width="64px" height="64px" viewBox="0 0 64 64" enable-background="new 0 0 64 64" xml:space="preserve">
<g>
	<path fill="#231F20" d="M11.759,24.734c-4.007,0-7.267,3.26-7.267,7.266c0,4.007,3.26,7.266,7.267,7.266
		c4.006,0,7.266-3.259,7.266-7.266C19.025,27.994,15.765,24.734,11.759,24.734z M11.759,37.286c-2.914,0-5.286-2.372-5.286-5.286
		c0-2.913,2.372-5.284,5.286-5.284c2.913,0,5.284,2.371,5.284,5.284C17.042,34.914,14.672,37.286,11.759,37.286z"/>
	<path fill="#231F20" d="M32.356,24.734c-4.007,0-7.267,3.26-7.267,7.266c0,4.007,3.26,7.266,7.267,7.266
		c4.007,0,7.267-3.259,7.267-7.266C39.623,27.994,36.363,24.734,32.356,24.734z M32.356,37.286c-2.913,0-5.284-2.372-5.284-5.286
		c0-2.913,2.372-5.284,5.284-5.284c2.914,0,5.285,2.371,5.285,5.284C37.641,34.914,35.27,37.286,32.356,37.286z"/>
	<path fill="#231F20" d="M52.242,24.734c-4.008,0-7.268,3.26-7.268,7.266c0,4.007,3.26,7.266,7.268,7.266
		c4.006,0,7.266-3.259,7.266-7.266C59.508,27.994,56.248,24.734,52.242,24.734z M52.242,37.286c-2.914,0-5.285-2.372-5.285-5.286
		c0-2.913,2.371-5.284,5.285-5.284s5.283,2.371,5.283,5.284C57.525,34.914,55.156,37.286,52.242,37.286z"/>
</g>
</svg>
