<?xml version="1.0" encoding="utf-8"?>
<!-- Generator: Adobe Illustrator 15.0.0, SVG Export Plug-In . SVG Version: 6.00 Build 0)  -->
<!DOCTYPE svg PUBLIC "-//W3C//DTD SVG 1.1//EN" "http://www.w3.org/Graphics/SVG/1.1/DTD/svg11.dtd">
<svg version="1.1" id="Layer_1" xmlns="http://www.w3.org/2000/svg" xmlns:xlink="http://www.w3.org/1999/xlink" x="0px" y="0px"
	 width="64px" height="64px" viewBox="0 0 64 64" enable-background="new 0 0 64 64" xml:space="preserve">
<g>
	<path fill="#231F20" d="M31.999,3.726c-13.429,0-24.357,9.917-24.357,22.106c0,7.25,3.917,14.039,10.483,18.171
		c0.25,7.476-2.292,14.011-2.317,14.074l-0.861,2.197l17.722-12.351c13.069-0.325,23.689-10.223,23.689-22.092
		C56.358,13.643,45.432,3.726,31.999,3.726z M32.21,46.5L17.837,56.518c0.807-2.703,1.951-7.587,1.704-12.954l-0.018-0.381
		l-0.324-0.197C12.857,39.128,9.073,32.718,9.073,25.832c0-11.399,10.284-20.674,22.926-20.674c12.644,0,22.928,9.275,22.928,20.674
		c0,11.191-10.093,20.46-22.5,20.666L32.21,46.5z"/>
	<rect x="18.602" y="21.279" fill="#231F20" width="28.299" height="1.429"/>
	<rect x="18.602" y="29.161" fill="#231F20" width="28.299" height="1.429"/>
</g>
</svg>
