<?xml version="1.0" encoding="utf-8"?>
<!-- Generator: Adobe Illustrator 15.0.0, SVG Export Plug-In . SVG Version: 6.00 Build 0)  -->
<!DOCTYPE svg PUBLIC "-//W3C//DTD SVG 1.1//EN" "http://www.w3.org/Graphics/SVG/1.1/DTD/svg11.dtd">
<svg version="1.1" id="Layer_1" xmlns="http://www.w3.org/2000/svg" xmlns:xlink="http://www.w3.org/1999/xlink" x="0px" y="0px"
	 width="64px" height="64px" viewBox="0 0 64 64" enable-background="new 0 0 64 64" xml:space="preserve">
<g>
	<g>
		<path fill="#231F20" d="M36.385,51.504c-0.442,0-1.47-0.2-1.47-2.063v-8.557H6.594c-0.078,0.012-0.183,0.023-0.308,0.023
			c-0.503,0-0.968-0.19-1.31-0.54c-0.443-0.453-0.668-1.146-0.668-2.057V25.157c0-1.819,1.29-2.3,1.972-2.3h28.037v-7.842
			c0-2.193,1.044-2.52,1.666-2.52c0.998,0,1.992,0.949,2.181,1.14c0.682,0.503,18.716,14.098,20.698,16.078
			c0.72,0.721,0.846,1.446,0.826,1.926c-0.048,1.155-0.938,1.941-1.038,2.028l-20.06,16.601
			C38.372,50.506,37.354,51.504,36.385,51.504z M6.386,39.296l0.133,0.001h29.982V49.44c0,0.2,0.016,0.338,0.033,0.429
			c0.256-0.122,0.678-0.443,0.976-0.759l20.121-16.66c0.119-0.104,0.46-0.489,0.475-0.883c0.007-0.24-0.112-0.48-0.363-0.733
			c-1.903-1.901-20.43-15.865-20.616-16.006c-0.417-0.405-0.911-0.725-1.12-0.745c0.009,0.039-0.101,0.274-0.101,0.932v9.428H6.288
			c-0.261,0.01-0.393,0.251-0.393,0.713v13.154c0,0.674,0.165,0.895,0.215,0.947c0.019,0.019,0.063,0.064,0.176,0.064L6.386,39.296z
			"/>
	</g>
</g>
</svg>
