<?xml version="1.0" encoding="utf-8"?>
<!-- Generator: Adobe Illustrator 15.0.0, SVG Export Plug-In . SVG Version: 6.00 Build 0)  -->
<!DOCTYPE svg PUBLIC "-//W3C//DTD SVG 1.1//EN" "http://www.w3.org/Graphics/SVG/1.1/DTD/svg11.dtd">
<svg version="1.1" id="Layer_1" xmlns="http://www.w3.org/2000/svg" xmlns:xlink="http://www.w3.org/1999/xlink" x="0px" y="0px"
	 width="64px" height="64px" viewBox="0 0 64 64" enable-background="new 0 0 64 64" xml:space="preserve">
<path d="M49.832,7.909c-0.119,0.052-12.096,5.217-19.636-1.252c-8.668-7.438-16.967-0.056-17.048,0.02l-0.324,0.295l-0.05,54.066
	l1.986,0.003l0.032-34.255c1.441-1.143,7.575-5.333,14.11,0.276c8.482,7.278,21.191,1.799,21.729,1.562l0.596-0.262V7.294
	L49.832,7.909z M49.238,27.041c-2.514,0.947-12.463,4.156-19.042-1.487c-2.899-2.488-5.756-3.317-8.279-3.317
	c-3.022,0-5.567,1.192-7.122,2.152l0.013-16.514c1.471-1.165,7.584-5.298,14.094,0.289c6.945,5.958,16.727,3.365,20.336,2.1V27.041z
	"/>
</svg>
