<?xml version="1.0" encoding="utf-8"?>
<!-- Generator: Adobe Illustrator 16.0.4, SVG Export Plug-In . SVG Version: 6.00 Build 0)  -->
<!DOCTYPE svg PUBLIC "-//W3C//DTD SVG 1.1//EN" "http://www.w3.org/Graphics/SVG/1.1/DTD/svg11.dtd">
<svg version="1.1" id="Layer_1" xmlns="http://www.w3.org/2000/svg" xmlns:xlink="http://www.w3.org/1999/xlink" x="0px" y="0px"
	 width="64px" height="64px" viewBox="0 0 64 64" enable-background="new 0 0 64 64" xml:space="preserve">
<path fill="#231F20" d="M58.814,20.943c-1.701-2.553-3.916-5.203-6.59-7.876c-4.533-4.533-8.76-7.53-8.938-7.656l-0.848-0.598
	l-9.364,15.275l0.163,0.164L4.628,50.234l9.245,9.246l29.982-28.61l0.266,0.265l15.251-9.351L58.814,20.943z M13.904,56.761
	l-6.556-6.557l27.267-28.576l7.865,7.865L13.904,56.761z M44.48,28.633l-8.902-8.903l7.426-12.111
	c1.453,1.095,4.596,3.577,7.846,6.825c2.293,2.291,4.229,4.555,5.773,6.745L44.48,28.633z M32.928,34.819l4.23-4.024l1.341,1.41
	l-4.231,4.023L32.928,34.819z"/>
</svg>
