<?xml version="1.0" encoding="utf-8"?>
<!-- Generator: Adobe Illustrator 15.0.0, SVG Export Plug-In . SVG Version: 6.00 Build 0)  -->
<!DOCTYPE svg PUBLIC "-//W3C//DTD SVG 1.1//EN" "http://www.w3.org/Graphics/SVG/1.1/DTD/svg11.dtd">
<svg version="1.1" id="Layer_1" xmlns="http://www.w3.org/2000/svg" xmlns:xlink="http://www.w3.org/1999/xlink" x="0px" y="0px"
	 width="64px" height="64px" viewBox="0 0 64 64" enable-background="new 0 0 64 64" xml:space="preserve">
<g>
	<path fill="#020202" d="M4.038,4.038v55.925h55.925V4.038H4.038z M58.056,14.762H17.112V5.944h40.943V14.762z M15.208,27.489v9.287
		H5.944v-9.287H15.208z M5.944,25.585v-8.917h9.263v8.917H5.944z M15.208,38.682v8.396H5.944v-8.396H15.208z M17.112,38.682h40.943
		v8.396H17.112V38.682z M17.112,36.775v-9.287h40.943v9.287H17.112z M17.112,25.585v-8.917h40.943v8.917H17.112z M15.208,5.944
		v8.818H5.944V5.944H15.208z M5.944,48.984h9.263v9.071H5.944V48.984z M17.112,58.056v-9.071h40.943v9.071H17.112z"/>
</g>
</svg>
