<?xml version="1.0" encoding="utf-8"?>
<!-- Generator: Adobe Illustrator 15.0.0, SVG Export Plug-In . SVG Version: 6.00 Build 0)  -->
<!DOCTYPE svg PUBLIC "-//W3C//DTD SVG 1.1//EN" "http://www.w3.org/Graphics/SVG/1.1/DTD/svg11.dtd">
<svg version="1.1" id="Layer_1" xmlns="http://www.w3.org/2000/svg" xmlns:xlink="http://www.w3.org/1999/xlink" x="0px" y="0px"
	 width="64px" height="64px" viewBox="0 0 64 64" enable-background="new 0 0 64 64" xml:space="preserve">
<g>
	<path fill="#221F1F" d="M37.06,10.623l-0.146-0.03l0.096,1.413l0.083,0.018c11.034,2.381,19.041,12.296,19.041,23.574
		c0,13.307-10.825,24.135-24.133,24.135c-13.307,0-24.133-10.828-24.133-24.135c0-11.276,8.016-21.183,19.06-23.557l0.091-0.019
		v-1.403l-0.138,0.029C15.075,13.067,6.507,23.56,6.507,35.598C6.507,49.654,17.942,61.09,32,61.09s25.493-11.436,25.493-25.492
		C57.493,23.521,48.899,13.018,37.06,10.623z"/>
	<rect x="31.321" y="2.911" fill="#221F1F" width="1.357" height="19.584"/>
</g>
</svg>
