<?xml version="1.0" encoding="utf-8"?>
<!-- Generator: Adobe Illustrator 15.0.0, SVG Export Plug-In . SVG Version: 6.00 Build 0)  -->
<!DOCTYPE svg PUBLIC "-//W3C//DTD SVG 1.1//EN" "http://www.w3.org/Graphics/SVG/1.1/DTD/svg11.dtd">
<svg version="1.1" id="Layer_1" xmlns="http://www.w3.org/2000/svg" xmlns:xlink="http://www.w3.org/1999/xlink" x="0px" y="0px"
	 width="64px" height="64px" viewBox="0 0 64 64" enable-background="new 0 0 64 64" xml:space="preserve">
<path fill="#231F20" d="M52.336,31.847c-0.395-10.813-9.096-19.515-19.91-19.909V3.181h-1.523v8.757
	c-10.813,0.395-19.514,9.096-19.91,19.909H3.18v1.521h7.813c0.396,10.814,9.097,19.516,19.91,19.911v7.54h1.523v-7.54
	c10.814-0.396,19.515-9.097,19.91-19.911h8.484v-1.521H52.336z M50.813,33.368c-0.395,9.966-8.423,17.994-18.387,18.388l0-8.015
	h-1.523v8.015c-9.963-0.394-17.993-8.425-18.386-18.388h7.742v-1.521h-7.742c0.394-9.962,8.423-17.991,18.386-18.386v6.797h1.523
	v-6.797c9.964,0.395,17.993,8.424,18.387,18.386h-7.07v1.521H50.813z"/>
</svg>
