<?xml version="1.0" encoding="utf-8"?>
<!-- Generator: Adobe Illustrator 15.0.0, SVG Export Plug-In . SVG Version: 6.00 Build 0)  -->
<!DOCTYPE svg PUBLIC "-//W3C//DTD SVG 1.1//EN" "http://www.w3.org/Graphics/SVG/1.1/DTD/svg11.dtd">
<svg version="1.1" id="Layer_1" xmlns="http://www.w3.org/2000/svg" xmlns:xlink="http://www.w3.org/1999/xlink" x="0px" y="0px"
	 width="64px" height="64px" viewBox="0 0 64 64" enable-background="new 0 0 64 64" xml:space="preserve">
<g>
	<polygon fill="#231F20" points="39.771,18.701 38.716,19.755 50.213,31.252 12.398,31.252 12.398,32.746 50.213,32.746 
		38.716,44.243 39.771,45.299 53.073,32 	"/>
	<path fill="#231F20" d="M32,4.417C16.79,4.417,4.416,16.79,4.416,32C4.416,47.211,16.79,59.583,32,59.583
		c15.209,0,27.584-12.372,27.584-27.583C59.584,16.79,47.209,4.417,32,4.417z M32,58.28C17.509,58.28,5.719,46.49,5.719,32
		c0-14.49,11.79-26.28,26.281-26.28S58.281,17.509,58.281,32C58.281,46.49,46.491,58.28,32,58.28z"/>
</g>
</svg>
