<?xml version="1.0" encoding="utf-8"?>
<!-- Generator: Adobe Illustrator 15.0.0, SVG Export Plug-In . SVG Version: 6.00 Build 0)  -->
<!DOCTYPE svg PUBLIC "-//W3C//DTD SVG 1.1//EN" "http://www.w3.org/Graphics/SVG/1.1/DTD/svg11.dtd">
<svg version="1.1" id="Layer_1" xmlns="http://www.w3.org/2000/svg" xmlns:xlink="http://www.w3.org/1999/xlink" x="0px" y="0px"
	 width="64px" height="64px" viewBox="0 0 64 64" enable-background="new 0 0 64 64" xml:space="preserve">
<g>
	<g>
		<path fill="#231F20" d="M55.746,59.945l-2.171-0.208c0-20.253-11.736-23.277-18.731-23.277c-1.305,0-2.383,0.109-3.079,0.204
			v15.932L7.494,28.325l24.271-24.27V19.36c7.996,0.722,14.182,3.843,18.388,9.285C59.356,40.541,55.897,59.159,55.746,59.945z
			 M34.844,34.271c5.045,0,15.454,1.594,19.379,14.081c-0.278-5.883-1.625-12.975-5.807-18.375
			c-3.985-5.149-9.979-8.011-17.817-8.509l-1.026-0.065V9.343L10.592,28.325l18.981,18.984v-12.45l0.861-0.189
			C30.508,34.652,32.271,34.271,34.844,34.271z"/>
	</g>
</g>
</svg>
