<?xml version="1.0" encoding="utf-8"?>
<!-- Generator: Adobe Illustrator 15.0.0, SVG Export Plug-In . SVG Version: 6.00 Build 0)  -->
<!DOCTYPE svg PUBLIC "-//W3C//DTD SVG 1.1//EN" "http://www.w3.org/Graphics/SVG/1.1/DTD/svg11.dtd">
<svg version="1.1" id="Layer_1" xmlns="http://www.w3.org/2000/svg" xmlns:xlink="http://www.w3.org/1999/xlink" x="0px" y="0px"
	 width="64px" height="64px" viewBox="0 0 64 64" enable-background="new 0 0 64 64" xml:space="preserve">
<g>
	<polygon points="55.331,29.418 55.335,27.772 37.395,27.769 60.25,4.914 59.087,3.75 36.231,26.606 36.231,8.669
		34.578,8.669 34.582,29.422 	"/>
	<polygon points="8.674,34.578 8.667,36.228 26.607,36.228 3.751,59.083 4.915,60.25 27.77,37.395 27.77,55.327
		29.421,55.327 29.419,34.578 	"/>
	<polygon points="55.327,36.234 55.327,34.582 34.578,34.582 34.578,55.334 36.228,55.334 36.228,37.397
		59.083,60.25 60.25,59.087 37.395,36.23 	"/>
	<polygon points="27.772,26.609 4.915,3.75 3.75,4.917 26.605,27.772 8.672,27.772 8.67,29.422 29.421,29.422
		29.421,8.673 27.772,8.669 	"/>
</g>
</svg>
