<?xml version="1.0" encoding="utf-8"?>
<!-- Generator: Adobe Illustrator 15.0.0, SVG Export Plug-In . SVG Version: 6.00 Build 0)  -->
<!DOCTYPE svg PUBLIC "-//W3C//DTD SVG 1.1//EN" "http://www.w3.org/Graphics/SVG/1.1/DTD/svg11.dtd">
<svg version="1.1" id="Layer_1" xmlns="http://www.w3.org/2000/svg" xmlns:xlink="http://www.w3.org/1999/xlink" x="0px" y="0px"
	 width="64px" height="64px" viewBox="0 0 64 64" enable-background="new 0 0 64 64" xml:space="preserve">
<g>
	<path fill="#231F20" d="M32,3.755c-10.535,0-19.105,8.456-19.105,18.85c0,5.239,2.194,10.973,5.835,15.292
		c0.046,0.065,0.092,0.132,0.14,0.189c1.284,1.584,3.933,5.632,3.933,8.029c0,0.563,0.159,1.085,0.416,1.544v7.698
		c0,1.662,1.353,3.015,3.016,3.015h1.509l0.72,0.829c0.571,0.664,1.401,1.044,2.28,1.044h2.514c0.875,0,1.704-0.38,2.276-1.039
		l0.724-0.834h1.512c1.66,0,3.009-1.353,3.009-3.015v-7.572c0.305-0.492,0.478-1.065,0.478-1.67c0-2.188,2.301-6.012,3.935-8.032
		c0.113-0.14,0.214-0.292,0.303-0.455c3.517-4.314,5.613-9.922,5.613-15.023C51.105,12.211,42.534,3.755,32,3.755z M37.769,56.437
		h-2.395l-1.303,1.502c-0.206,0.236-0.502,0.374-0.814,0.374h-2.514c-0.315,0-0.61-0.135-0.816-0.374l-1.301-1.502h-2.392
		c-0.598,0-1.082-0.484-1.082-1.079v-6.177c0.271,0.074,0.549,0.128,0.842,0.128h12.07c0.267,0,0.526-0.044,0.78-0.11v6.159
		C38.845,55.952,38.363,56.437,37.769,56.437z M30.326,47.373l-4.7-25.807L32,27.033l6.325-5.427l-5.063,25.767H30.326z
		 M43.935,36.478l-0.118,0.181c-0.04,0.08-0.083,0.15-0.133,0.211c-1.213,1.499-4.362,6.085-4.362,9.246
		c0,0.506-0.299,0.96-0.769,1.158c-0.154,0.066-0.318,0.1-0.488,0.1h-2.832l6.066-30.866L32,24.485l-9.254-7.937l5.612,30.825
		h-2.364c-0.694,0-1.258-0.563-1.258-1.258c0-3.754-4.319-9.192-4.366-9.25l-0.128-0.171c-3.39-4.025-5.413-9.293-5.413-14.09
		c0-9.327,7.703-16.915,17.17-16.915s17.17,7.588,17.17,16.915C49.17,27.302,47.213,32.488,43.935,36.478z"/>
</g>
</svg>
