<?xml version="1.0" encoding="utf-8"?>
<!-- Generator: Adobe Illustrator 15.0.0, SVG Export Plug-In . SVG Version: 6.00 Build 0)  -->
<!DOCTYPE svg PUBLIC "-//W3C//DTD SVG 1.1//EN" "http://www.w3.org/Graphics/SVG/1.1/DTD/svg11.dtd">
<svg version="1.1" id="Layer_1" xmlns="http://www.w3.org/2000/svg" xmlns:xlink="http://www.w3.org/1999/xlink" x="0px" y="0px"
	 width="64px" height="64px" viewBox="0 0 64 64" enable-background="new 0 0 64 64" xml:space="preserve">
<g>
	<g>
		<path fill="#020202" d="M53.928,8.286V3.763h-2.049v4.522h-7.375V3.763h-2.048v4.522h-8.229V3.763h-2.048v4.522h-8.541V3.763
			H21.59v4.522h-8.193V3.763h-2.048v4.522H4.051v51.951h55.898V8.286H53.928z M58.091,58.378H5.912V21.699h52.179V58.378z
			 M58.091,19.843H5.912v-9.699h5.436v4.712h2.048v-4.712h8.193v4.712h2.048v-4.712h8.541v4.712h2.048v-4.712h8.229v4.712h2.048
			v-4.712h7.375v4.712h2.049v-4.712h4.163V19.843z"/>
	</g>
	<g>
		<polygon fill="#020202" points="46.468,32.576 45.101,31.053 29.972,44.621 21.065,35.584 19.608,37.024 29.882,47.449 		"/>
	</g>
</g>
</svg>
