<?xml version="1.0" encoding="utf-8"?>
<!-- Generator: Adobe Illustrator 15.0.0, SVG Export Plug-In . SVG Version: 6.00 Build 0)  -->
<!DOCTYPE svg PUBLIC "-//W3C//DTD SVG 1.1//EN" "http://www.w3.org/Graphics/SVG/1.1/DTD/svg11.dtd">
<svg version="1.1" id="Layer_1" xmlns="http://www.w3.org/2000/svg" xmlns:xlink="http://www.w3.org/1999/xlink" x="0px" y="0px"
	 width="64px" height="64px" viewBox="0 0 64 64" enable-background="new 0 0 64 64" xml:space="preserve">
<g>
	<g>
		<path fill="#020202" d="M51.965,55.75H5.314V22.958h46.65v3.609l1.663,1.66V10.965h-6.223V6.59h-1.831v4.375h-6.592V6.59h-1.831
			v4.375h-7.357V6.59h-1.831v4.375h-7.638V6.59h-1.831v4.375h-7.324V6.59H9.34v4.375H3.653V57.41h49.975v-8.634l-1.663,1.661V55.75z
			 M5.314,12.625H9.34v3.884h1.831v-3.884h7.324v3.884h1.831v-3.884h7.638v3.884h1.831v-3.884h7.357v3.884h1.831v-3.884h6.592v3.884
			h1.831v-3.884h4.56v8.672H5.314V12.625z"/>
	</g>
	<g>
		<polygon fill="#020202" points="50.026,48.545 60.347,38.223 50.026,27.9 48.871,29.057 57.22,37.405 33.384,37.405 33.384,39.04 
			57.22,39.04 48.871,47.386 		"/>
	</g>
</g>
</svg>
