<?xml version="1.0" encoding="utf-8"?>
<!-- Generator: Adobe Illustrator 15.0.0, SVG Export Plug-In . SVG Version: 6.00 Build 0)  -->
<!DOCTYPE svg PUBLIC "-//W3C//DTD SVG 1.1//EN" "http://www.w3.org/Graphics/SVG/1.1/DTD/svg11.dtd">
<svg version="1.1" id="Layer_1" xmlns="http://www.w3.org/2000/svg" xmlns:xlink="http://www.w3.org/1999/xlink" x="0px" y="0px"
	 width="64px" height="64px" viewBox="0 0 64 64" enable-background="new 0 0 64 64" xml:space="preserve">
<g>
	<path fill="#231F20" d="M32,4.411c-15.314,0-27.771,12.458-27.771,27.771c0,15.314,12.458,27.77,27.771,27.77
		c15.313,0,27.771-12.455,27.771-27.77C59.771,16.869,47.313,4.411,32,4.411z M32,57.461c-13.938,0-25.279-11.34-25.279-25.279
		C6.721,18.243,18.062,6.904,32,6.904c13.937,0,25.279,11.339,25.279,25.277C57.279,46.121,45.937,57.461,32,57.461z"/>
	<path fill="#231F20" d="M32.203,15.103c-2.335,0-4.852,0.642-6.466,1.625l0.729,1.92c1.348-0.763,3.146-1.233,4.818-1.233
		c3.465,0.057,5.527,1.952,5.527,5.071c0,2.536-1.367,4.646-3.732,7.432c-2.3,2.759-3.312,5.557-3.008,8.314l0.057,0.723h2.644
		l-0.022-0.622c-0.168-2.84,0.749-5.229,3.069-7.969c2.474-2.938,4.228-5.265,4.228-8.44C40.046,18.776,37.991,15.103,32.203,15.103
		z"/>
	<path fill="#231F20" d="M31.438,44.244c-1.426,0-2.381,1.018-2.381,2.532c0,1.463,0.958,2.485,2.328,2.485
		c1.427,0,2.383-0.999,2.383-2.485C33.769,45.262,32.832,44.244,31.438,44.244z"/>
</g>
</svg>
