<?xml version="1.0" encoding="utf-8"?>
<!-- Generator: Adobe Illustrator 15.0.0, SVG Export Plug-In . SVG Version: 6.00 Build 0)  -->
<!DOCTYPE svg PUBLIC "-//W3C//DTD SVG 1.1//EN" "http://www.w3.org/Graphics/SVG/1.1/DTD/svg11.dtd">
<svg version="1.1" id="Layer_1" xmlns="http://www.w3.org/2000/svg" xmlns:xlink="http://www.w3.org/1999/xlink" x="0px" y="0px"
	 width="64px" height="64px" viewBox="0 0 64 64" enable-background="new 0 0 64 64" xml:space="preserve">
<g>
	<polygon fill="#231F20" points="14.008,31.262 25.366,19.907 24.321,18.861 11.182,32.001 24.321,45.14 25.366,44.096 
		14.008,32.738 51.366,32.738 51.366,31.262 	"/>
	<path fill="#231F20" d="M32,4.75c-15.026,0-27.25,12.225-27.25,27.252c0,15.024,12.224,27.25,27.25,27.25
		c15.026,0,27.249-12.226,27.249-27.25C59.249,16.975,47.026,4.75,32,4.75z M32,57.963c-14.315,0-25.962-11.646-25.962-25.961
		C6.038,17.684,17.685,6.037,32,6.037c14.314,0,25.962,11.647,25.962,25.964C57.962,46.316,46.314,57.963,32,57.963z"/>
</g>
</svg>
