<?xml version="1.0" encoding="utf-8"?>
<!-- Generator: Adobe Illustrator 15.0.0, SVG Export Plug-In . SVG Version: 6.00 Build 0)  -->
<!DOCTYPE svg PUBLIC "-//W3C//DTD SVG 1.1//EN" "http://www.w3.org/Graphics/SVG/1.1/DTD/svg11.dtd">
<svg version="1.1" id="Layer_1" xmlns="http://www.w3.org/2000/svg" xmlns:xlink="http://www.w3.org/1999/xlink" x="0px" y="0px"
	 width="64px" height="64px" viewBox="0 0 64 64" enable-background="new 0 0 64 64" xml:space="preserve">
<g>
	<g>
		<path fill="#020202" d="M32.003,4.247c-15.307,0-27.758,12.448-27.758,27.752c0,15.304,12.451,27.754,27.758,27.754
			c15.301,0,27.752-12.45,27.752-27.754C59.755,16.695,47.304,4.247,32.003,4.247z M32.003,57.761
			c-14.207,0-25.763-11.555-25.763-25.762c0-14.204,11.556-25.76,25.763-25.76c14.204,0,25.76,11.556,25.76,25.76
			C57.763,46.206,46.207,57.761,32.003,57.761z"/>
	</g>
	<g>
		<path fill="#020202" d="M32,11.74c-0.55,0-0.996,0.446-0.996,0.996v18.266H14.689c-0.55,0-0.996,0.446-0.996,0.999
			c0,0.55,0.446,0.997,0.996,0.997H32c0.553,0,0.996-0.446,0.996-0.997V12.736C32.996,12.187,32.553,11.74,32,11.74z"/>
	</g>
</g>
</svg>
