<?xml version="1.0" encoding="utf-8"?>
<!-- Generator: Adobe Illustrator 15.0.0, SVG Export Plug-In . SVG Version: 6.00 Build 0)  -->
<!DOCTYPE svg PUBLIC "-//W3C//DTD SVG 1.1//EN" "http://www.w3.org/Graphics/SVG/1.1/DTD/svg11.dtd">
<svg version="1.1" id="Layer_1" xmlns="http://www.w3.org/2000/svg" xmlns:xlink="http://www.w3.org/1999/xlink" x="0px" y="0px"
	 width="64px" height="64px" viewBox="0 0 64 64" enable-background="new 0 0 64 64" xml:space="preserve">
<path d="M42.055,7.667v2.381h9.129l-8.95,8.949c-8.162-6.261-19.923-5.679-27.39,1.788c-8.12,8.122-8.12,21.337,0,29.458
	c8.122,8.122,21.338,8.122,29.46,0c8.122-8.121,8.122-21.336,0-29.458c-0.083-0.082-0.175-0.151-0.258-0.232l8.82-8.821v9.128h2.38
	V7.667L42.055,7.667z M42.62,48.559c-7.195,7.195-18.898,7.195-26.093,0c-7.192-7.193-7.192-18.897,0-26.091
	c7.195-7.194,18.897-7.194,26.093,0C49.812,29.661,49.812,41.365,42.62,48.559z"/>
</svg>
