
<svg width="100px" height="100px" viewBox="0 0 100 100" version="1.1" xmlns="http://www.w3.org/2000/svg" xmlns:xlink="http://www.w3.org/1999/xlink">
    <path d="M37.2654123,63.0026808 C44.4146523,63.0026808 50.4915245,60.5004514 55.4959925,55.4959834 C60.5004605,50.4915245 63.0026716,44.4146477 63.0026716,37.2654077 C63.0026716,30.1161677 60.5004605,24.0393366 55.4959925,19.0348686 C50.4915245,14.0304006 44.4146523,11.5281438 37.2654123,11.5281438 C30.1161723,11.5281438 24.0393183,14.0304006 19.0348503,19.0348686 C14.0303823,24.0393366 11.5281483,30.1161677 11.5281483,37.2654077 C11.5281483,44.4146477 14.0303823,50.4915245 19.0348503,55.4959834 C24.0393183,60.5004514 30.1161723,63.0026808 37.2654123,63.0026808 L37.2654123,63.0026808 Z M71.5817596,63.0026808 L100,91.420912 L91.420912,100 L63.0026716,71.5817688 L63.0026716,67.0241317 L61.3941041,65.4155504 C54.6023032,71.3136757 46.5594197,74.2627361 37.2654123,74.2627361 C26.8990143,74.2627361 18.0965131,70.6881161 10.8579088,63.5388761 C3.61930492,56.3896361 0,47.6318286 0,37.2654077 C0,26.8990326 3.61930492,18.0965223 10.8579088,10.8579225 C18.0965131,3.61932276 26.8990143,0 37.2654123,0 C47.6318286,0 56.3896361,3.61932276 63.5388761,10.8579225 C70.6881161,18.0965223 74.2627361,26.8990326 74.2627361,37.2654077 C74.2627361,46.5594197 71.3136803,54.6023261 65.4155687,61.3941041 L67.0241363,63.0026808 L71.5817596,63.0026808 Z" id="Page-1" stroke="none" fill="#757575" fill-rule="evenodd"></path>
</svg>