<?xml version="1.0" encoding="utf-8"?>
<!-- Generator: Adobe Illustrator 15.0.0, SVG Export Plug-In . SVG Version: 6.00 Build 0)  -->
<!DOCTYPE svg PUBLIC "-//W3C//DTD SVG 1.1//EN" "http://www.w3.org/Graphics/SVG/1.1/DTD/svg11.dtd">
<svg version="1.1" id="Layer_1" xmlns="http://www.w3.org/2000/svg" xmlns:xlink="http://www.w3.org/1999/xlink" x="0px" y="0px"
	 width="64px" height="64px" viewBox="0 0 64 64" enable-background="new 0 0 64 64" xml:space="preserve">
<g>
	<path fill="#231F20" d="M20.025,18.268c-2.681,0-4.862,2.181-4.862,4.865c0,2.68,2.181,4.861,4.862,4.861
		c2.682,0,4.863-2.181,4.863-4.861C24.888,20.449,22.707,18.268,20.025,18.268z M20.025,26.498c-1.857,0-3.368-1.51-3.368-3.366
		c0-1.859,1.51-3.369,3.368-3.369c1.858,0,3.369,1.51,3.369,3.369C23.394,24.988,21.883,26.498,20.025,26.498z"/>
	<path fill="#231F20" d="M32.385,18.268c-2.681,0-4.861,2.181-4.861,4.865c0,2.68,2.181,4.861,4.861,4.861s4.861-2.181,4.861-4.861
		C37.246,20.449,35.065,18.268,32.385,18.268z M32.385,26.498c-1.857,0-3.369-1.51-3.369-3.366c0-1.859,1.512-3.369,3.369-3.369
		c1.857,0,3.369,1.51,3.369,3.369C35.754,24.988,34.242,26.498,32.385,26.498z"/>
	<path fill="#231F20" d="M44.984,18.268c-2.682,0-4.863,2.181-4.863,4.865c0,2.68,2.182,4.861,4.863,4.861s4.863-2.181,4.863-4.861
		C49.848,20.449,47.666,18.268,44.984,18.268z M44.984,26.498c-1.857,0-3.367-1.51-3.367-3.366c0-1.859,1.51-3.369,3.367-3.369
		s3.367,1.51,3.367,3.369C48.352,24.988,46.842,26.498,44.984,26.498z"/>
	<path fill="#231F20" d="M3.47,3.75V43.4h11.014l-0.003,16.85L31.368,43.4H60.53V3.75H3.47z M15.975,56.648l0.003-14.744H4.964
		V5.243h54.072v36.662H30.751L15.975,56.648z"/>
</g>
</svg>
